<svg xmlns="http://www.w3.org/2000/svg" width="19" height="19" viewBox="0 0 19 19" fill="none">
  <g opacity="0.4">
    <path d="M8.75 3.81951H5.6C4.33988 3.81951 3.70982 3.81951 3.22852 4.06474C2.80516 4.28046 2.46095 4.62466 2.24524 5.04803C2 5.52933 2 6.15939 2 7.41951V13.7195C2 14.9796 2 15.6097 2.24524 16.091C2.46095 16.5143 2.80516 16.8586 3.22852 17.0743C3.70982 17.3195 4.33988 17.3195 5.6 17.3195H11.9C13.1601 17.3195 13.7902 17.3195 14.2715 17.0743C14.6948 16.8586 15.039 16.5143 15.2548 16.091C15.5 15.6097 15.5 14.9796 15.5 13.7195V10.5695M6.49998 12.8195H7.75589C8.12277 12.8195 8.30622 12.8195 8.47885 12.7781C8.6319 12.7413 8.77822 12.6807 8.91243 12.5985C9.0638 12.5057 9.19352 12.376 9.45294 12.1166L16.625 4.94451C17.2463 4.32319 17.2463 3.31583 16.625 2.69451C16.0037 2.07319 14.9963 2.07319 14.375 2.6945L7.20293 9.86656C6.9435 10.126 6.81378 10.2557 6.72102 10.4071C6.63878 10.5413 6.57817 10.6876 6.54143 10.8407C6.49998 11.0133 6.49998 11.1967 6.49998 11.5636V12.8195Z" stroke="#6D3B9E" stroke-width="1.26035" stroke-linecap="round" stroke-linejoin="round"/>
  </g>
</svg>