<svg xmlns="http://www.w3.org/2000/svg" width="19" height="19" viewBox="0 0 19 19" fill="none">
<path d="M10.3994 3.52344V5.54844C10.3994 6.80856 10.3994 7.43861 10.6446 7.91992C10.8604 8.34328 11.2046 8.68749 11.6279 8.9032C12.1092 9.14844 12.7393 9.14844 13.9994 9.14844H16.0244M16.3994 10.6396V13.0484C16.3994 14.3086 16.3994 14.9386 16.1542 15.4199C15.9385 15.8433 15.5943 16.1875 15.1709 16.4032C14.6896 16.6484 14.0595 16.6484 12.7994 16.6484H6.49941C5.2393 16.6484 4.60924 16.6484 4.12794 16.4032C3.70457 16.1875 3.36036 15.8433 3.14465 15.4199C2.89941 14.9386 2.89941 14.3086 2.89941 13.0484V6.74844C2.89941 5.48832 2.89941 4.85826 3.14465 4.37696C3.36036 3.95359 3.70457 3.60939 4.12794 3.39367C4.60924 3.14844 5.2393 3.14844 6.49941 3.14844H8.90825C9.45857 3.14844 9.73374 3.14844 9.99269 3.21061C10.2223 3.26572 10.4417 3.35663 10.6431 3.48C10.8701 3.61914 11.0647 3.81371 11.4538 4.20285L15.345 8.09402C15.7341 8.48316 15.9287 8.67773 16.0679 8.9048C16.1912 9.10611 16.2821 9.32558 16.3372 9.55517C16.3994 9.81411 16.3994 10.0893 16.3994 10.6396Z" stroke="#6D3B9E" strokeWidth="1.5" strokeLinecap="round" strokeLinejoin="round"/>
</svg>