<svg xmlns="http://www.w3.org/2000/svg" width="19" height="19" viewBox="0 0 19 19" fill="none">
  <g>
    <path d="M11.1494 16.6484H8.14937M14.1494 6.89844C14.1494 5.70496 13.6753 4.56037 12.8313 3.71646C11.9874 2.87254 10.8428 2.39844 9.64937 2.39844C8.45589 2.39844 7.3113 2.87254 6.46739 3.71646C5.62347 4.56037 5.14937 5.70496 5.14937 6.89844C5.14937 9.21608 4.56472 10.8029 3.91162 11.8525C3.36071 12.7378 3.08526 13.1805 3.09536 13.304C3.10654 13.4407 3.13551 13.4929 3.2457 13.5746C3.34521 13.6484 3.79381 13.6484 4.69101 13.6484H14.6077C15.5049 13.6484 15.9535 13.6484 16.053 13.5746C16.1632 13.4929 16.1922 13.4407 16.2034 13.304C16.2135 13.1805 15.938 12.7378 15.3871 11.8525C14.734 10.8029 14.1494 9.21608 14.1494 6.89844Z" stroke="#6D3B9E" stroke-width="1.5" stroke-linecap="round" stroke-linejoin="round"/>
  </g>
</svg>