<svg xmlns="http://www.w3.org/2000/svg" width="21" height="21" viewBox="0 0 21 21" fill="none">
  <g clip-path="url(#clip0_1615_2751)">
    <path d="M10.6494 19.2311C6.04687 19.2311 2.31604 15.5003 2.31604 10.8978C2.31604 6.29529 6.04687 2.56445 10.6494 2.56445C15.2519 2.56445 18.9827 6.29529 18.9827 10.8978C18.9827 15.5003 15.2519 19.2311 10.6494 19.2311ZM10.6494 17.5645C12.4175 17.5645 14.1132 16.8621 15.3634 15.6118C16.6137 14.3616 17.316 12.6659 17.316 10.8978C17.316 9.12968 16.6137 7.43398 15.3634 6.18374C14.1132 4.9335 12.4175 4.23112 10.6494 4.23112C8.88126 4.23112 7.18557 4.9335 5.93533 6.18374C4.68509 7.43398 3.98271 9.12968 3.98271 10.8978C3.98271 12.6659 4.68509 14.3616 5.93533 15.6118C7.18557 16.8621 8.88126 17.5645 10.6494 17.5645ZM9.81604 13.3978H11.4827V15.0645H9.81604V13.3978ZM11.4827 12.027V12.5645H9.81604V11.3145C9.81604 11.0934 9.90384 10.8815 10.0601 10.7252C10.2164 10.5689 10.4284 10.4811 10.6494 10.4811C10.8861 10.4811 11.118 10.4139 11.318 10.2872C11.518 10.1606 11.6779 9.97976 11.7792 9.76577C11.8804 9.55179 11.9188 9.31345 11.8899 9.07849C11.861 8.84353 11.766 8.62161 11.6159 8.43855C11.4658 8.25549 11.2668 8.11881 11.0421 8.04443C10.8173 7.97004 10.5761 7.96101 10.3464 8.01837C10.1167 8.07574 9.90805 8.19715 9.74468 8.36847C9.58131 8.53979 9.46994 8.75398 9.42354 8.98612L7.78854 8.65862C7.8899 8.15202 8.12396 7.68143 8.46681 7.29494C8.80965 6.90845 9.24897 6.61994 9.73986 6.45889C10.2308 6.29783 10.7556 6.27002 11.2608 6.3783C11.7659 6.48657 12.2333 6.72705 12.6151 7.07514C12.9968 7.42323 13.2793 7.86646 13.4336 8.35951C13.588 8.85255 13.6086 9.37774 13.4934 9.88138C13.3783 10.385 13.1314 10.849 12.7781 11.226C12.4249 11.603 11.9778 11.8794 11.4827 12.027Z" fill="#8347BD"/>
  </g>
  <defs>
    <clipPath id="clip0_1615_2751">
      <rect width="20" height="20" fill="white" transform="translate(0.649414 0.898438)"/>
    </clipPath>
  </defs>
</svg>