<svg xmlns="http://www.w3.org/2000/svg" width="50" height="50" viewBox="0 0 50 50" fill="none">
  <g clip-path="url(#clip0_1615_565)">
    <path d="M20.1466 24.587L19.1764 29.9911L24.3522 27.4006C24.8538 27.1486 25.4448 27.1486 25.9463 27.4006L31.0985 29.9867L30.1536 24.5869C30.0475 24.0027 30.248 23.4047 30.6847 23.0024L34.7732 19.194L29.0609 18.4065C28.4936 18.3282 27.9994 17.9795 27.7355 17.4712L25.1659 12.4975V12.4922L22.5675 17.4712C22.3034 17.9797 21.8089 18.3284 21.2411 18.4065L15.5411 19.194L19.6208 22.998C20.0569 23.4025 20.2554 24.0022 20.1466 24.587Z" fill="url(#paint0_linear_1615_565)"/>
    <path d="M25.1495 38.7401C34.3301 38.7401 41.7725 31.2978 41.7725 22.1171C41.7725 12.9365 34.33 5.49414 25.1495 5.49414C15.9689 5.49414 8.52649 12.9365 8.52649 22.117C8.53663 31.2935 15.9731 38.73 25.1495 38.7401ZM13.8573 18.6752C14.0613 18.0262 14.6229 17.5544 15.2973 17.4652L20.9982 16.6734L23.5791 11.6953C23.8845 11.1104 24.4897 10.7437 25.1495 10.7437C25.8093 10.7437 26.4145 11.1104 26.7199 11.6953L29.2895 16.669L35.0026 17.4652C35.6766 17.5546 36.2379 18.0264 36.4418 18.6752C36.6479 19.3169 36.4613 20.0199 35.9641 20.4749L31.8748 24.2842L32.8486 29.6814C32.9665 30.3325 32.7042 30.994 32.1723 31.3875C31.6347 31.7911 30.9145 31.8541 30.3149 31.5502L25.1644 28.9641L19.9877 31.5502C19.3878 31.8543 18.6672 31.7913 18.1294 31.3875C17.5976 30.9944 17.3353 30.3331 17.4532 29.6823L18.4234 24.2772L14.3333 20.4749C13.837 20.0193 13.6512 19.3166 13.8573 18.6752Z" fill="url(#paint1_linear_1615_565)"/>
    <path d="M25.1493 43.9889C37.2292 43.9889 47.0217 34.1963 47.0217 22.1166C47.0217 10.0368 37.2292 0.244141 25.1493 0.244141C13.0695 0.244141 3.27698 10.0368 3.27698 22.1165C3.29047 34.1907 13.0751 43.9755 25.1493 43.9889ZM25.1493 3.74368C35.2964 3.74368 43.5221 11.9694 43.5221 22.1165C43.5221 32.2635 35.2964 40.4893 25.1493 40.4893C15.0023 40.4893 6.77652 32.2635 6.77652 22.1165C6.7881 11.9743 15.0072 3.75526 25.1493 3.74368Z" fill="url(#paint2_linear_1615_565)"/>
    <path d="M25.1495 45.7371C16.0383 45.7289 7.74169 40.488 3.82043 32.2637C6.10689 42.2008 14.9527 49.2424 25.1495 49.2424C35.3464 49.2424 44.1922 42.2008 46.4787 32.2637C42.5575 40.488 34.2609 45.7288 25.1495 45.7371Z" fill="url(#paint3_linear_1615_565)"/>
  </g>
  <defs>
    <linearGradient id="paint0_linear_1615_565" x1="25.1572" y1="12.4922" x2="25.1572" y2="29.9911" gradientUnits="userSpaceOnUse">
      <stop stop-color="#FFBE0E"/>
      <stop offset="1" stop-color="#FFD563"/>
    </linearGradient>
    <linearGradient id="paint1_linear_1615_565" x1="25.1495" y1="5.49414" x2="25.1495" y2="38.7401" gradientUnits="userSpaceOnUse">
      <stop stop-color="#FFBE0E"/>
      <stop offset="1" stop-color="#FFD563"/>
    </linearGradient>
    <linearGradient id="paint2_linear_1615_565" x1="25.1493" y1="0.244141" x2="25.1493" y2="43.9889" gradientUnits="userSpaceOnUse">
      <stop stop-color="#FFBE0E"/>
      <stop offset="1" stop-color="#FFD563"/>
    </linearGradient>
    <linearGradient id="paint3_linear_1615_565" x1="25.1495" y1="32.2637" x2="25.1495" y2="49.2424" gradientUnits="userSpaceOnUse">
      <stop stop-color="#FFBE0E"/>
      <stop offset="1" stop-color="#FFD563"/>
    </linearGradient>
    <clipPath id="clip0_1615_565">
      <rect width="49" height="49" fill="white" transform="translate(0.649414 0.244141)"/>
    </clipPath>
  </defs>
</svg>