<svg width="476" height="404" viewBox="0 0 476 404" fill="none" xmlns="http://www.w3.org/2000/svg">
<path d="M102 101.5L82 75.5L51.5 84L32 44.5" stroke="#F87A7A" stroke-width="8"/>
<path d="M384 134.826L414.111 121.812L436.643 144.056L472.874 118.998" stroke="#F87A7A" stroke-width="8"/>
<path d="M138.36 59.494L130.466 35.7927L106.4 34.2887L102.239 1" stroke="#F87A7A" stroke-width="8"/>
<path d="M368.35 101.735L375.197 81.1776L396.071 79.8732L399.68 51" stroke="#F87A7A" stroke-width="8"/>
<path d="M287.653 339.209L303.016 234.147L282.429 212.386L322.284 165.428C322.284 165.428 330.406 134.564 330.406 133.295C330.406 132.026 291.786 56.3155 291.786 56.3155L179.998 62.9193L151.034 101.163L139.417 153.206L181.222 208.884L161.151 232.673L169.738 275.16V336.329L287.653 339.209Z" fill="#FFF0F1"/>
<path fill-rule="evenodd" clip-rule="evenodd" d="M190.491 213.596C188.864 212.314 187.296 210.948 185.794 209.503L183.824 207.61L155.43 183.423C153.409 181.701 151.534 179.817 149.823 177.788C141.066 167.402 137.084 153.811 138.855 140.342L140.405 128.545C141.024 123.839 142.086 119.202 143.578 114.696L147.18 103.815C150.607 93.4616 156.431 84.0639 164.177 76.3869C173.219 67.4262 184.556 61.1306 196.941 58.1916L202.569 56.8562C209.062 55.3154 215.713 54.5371 222.387 54.5371H233.853C238.518 54.5371 243.174 54.1569 247.777 53.4004L268.026 50.0717C285.045 47.7242 301.154 58.4013 305.622 74.9906L305.931 76.1352C307.161 80.7029 309.293 84.9783 312.201 88.7094L317.867 95.9795C322.258 101.614 325.639 107.966 327.861 114.755C331.511 125.908 331.908 137.857 329.025 149.207C327.88 144.765 324.794 141.394 319.489 141.187C317.473 141.104 315.766 141.381 314.32 141.907C316.287 118.273 305.218 87.5898 286.819 77.7894C259.418 63.1968 236.737 59.4491 236.737 59.4491C236.737 59.4491 215.662 61.4849 187.203 73.8892C177.519 78.1107 171.641 85.7782 168.211 95.4069C164.882 104.775 163.868 115.983 163.923 127.672C162.522 127.035 160.843 126.625 158.827 126.548C151.696 126.271 148.118 131.999 147.813 138.625C147.525 144.919 152.358 162.473 157.749 165.996C158.658 166.591 159.355 167.08 159.909 167.469C162.043 168.966 162.068 168.983 163.923 167.827C165.829 191.115 176.343 200.879 200.754 208.281C201.33 208.458 201.884 208.68 202.41 208.951C204.726 210.12 206.482 212.12 207.347 214.502C207.491 214.879 207.602 215.267 207.696 215.66C207.552 215.655 207.402 215.644 207.258 215.632C205.131 215.522 203.075 215.361 201.086 215.156C197.314 214.779 193.786 214.249 190.491 213.596ZM263.554 217.508L263.561 217.504L279.422 210.408C283.586 208.545 287.602 206.366 291.379 203.809C296.944 200.042 303.292 195.57 304.302 194.223C306.048 191.895 317.107 180.837 320.017 180.837C321.434 180.837 323.498 173.793 325.29 166.137C323.968 167.851 322.352 169.306 320.464 170.339C315.844 172.86 312.597 172.765 310.381 171.137C310.082 172.943 309.789 174.732 309.501 176.505C309.501 176.511 309.499 176.518 309.497 176.523C309.496 176.527 309.495 176.53 309.495 176.533C309.495 176.544 309.489 176.555 309.489 176.571C305.501 200.898 285.451 205.699 262.93 210.685C262.886 210.696 262.847 210.702 262.803 210.713C259.424 211.455 256.726 213.826 255.523 216.918C255.446 217.117 255.374 217.322 255.307 217.527C255.346 217.527 255.386 217.529 255.426 217.53C255.467 217.531 255.507 217.533 255.546 217.533C257.678 217.594 259.745 217.599 261.745 217.555C262.354 217.544 262.957 217.528 263.554 217.508Z" fill="#F87A7A"/>
<path d="M348.814 112.001C338.923 94.6501 319.601 78.416 318.747 77.7083L338.393 90.2627C339.688 91.0909 341.36 89.9796 341.077 88.47C340.123 83.27 337.088 73.0745 327.48 59.9803C313.332 40.7006 284.512 29.5983 266.113 29.5983C258.748 29.5983 244.716 30.1382 236.47 33.8599C228.23 30.1382 214.197 29.5983 206.832 29.5983C188.433 29.5983 159.613 40.7006 145.46 59.9855C135.852 73.0798 132.817 83.2752 131.863 88.4752C131.58 89.9849 133.252 91.0961 134.547 90.2679L154.193 77.7136C153.344 78.4212 134.017 94.6554 124.126 112.006C116.693 125.058 115.33 140.511 115.131 147.756C115.084 149.396 117.002 150.324 118.271 149.255L132.151 137.602C132.151 137.602 123.67 149.48 121.646 166.291C120.331 177.215 123.245 188.58 125.436 195.205C125.803 196.327 127.47 196.102 127.517 194.922C127.575 193.517 127.696 192.055 127.942 190.724C128.728 186.357 130.353 185.99 130.353 185.99C130.353 185.99 130.296 191.903 135.695 198.13C138.462 201.328 142.163 203.734 145.093 205.317C146.635 206.145 148.354 204.583 147.672 202.969C147.012 201.365 146.262 199.357 145.576 196.951C143.573 189.99 150.057 195.688 153.884 198.403C157.711 201.118 170.024 210.459 182.657 210.459H184.077C188.439 209.893 197.594 210.532 197.322 207.182C191.52 205.317 182.657 195.838 179.936 177.629C179.879 177.462 179.879 177.346 179.821 177.231C176.655 176.89 173.761 175.711 171.219 173.845C169.631 172.712 168.21 171.297 167.031 169.719C164.022 165.825 162.219 160.729 162.219 155.199C162.219 144.794 168.551 136.04 177.111 133.671C177.279 133.22 177.336 132.654 177.336 132.14C177.336 131.349 177.169 130.557 176.88 129.818C176.765 128.581 176.597 127.339 176.597 126.033C176.597 92.9308 203.43 66.0347 236.475 65.7516C269.52 66.0347 296.353 92.9308 296.353 126.033C296.353 127.333 296.186 128.581 296.07 129.818C295.787 130.552 295.614 131.349 295.614 132.14C295.614 132.649 295.672 133.215 295.84 133.671C304.395 136.04 310.732 144.794 310.732 155.199C310.732 160.729 308.924 165.825 305.92 169.719C304.741 171.292 303.32 172.712 301.732 173.845C299.189 175.711 296.296 176.89 293.13 177.231C293.072 177.341 293.072 177.456 293.014 177.629C290.294 194.887 276.424 207.408 266.061 209.957C265.789 213.306 284.517 209.893 288.873 210.459H290.294C302.927 210.459 315.235 201.118 319.067 198.403C322.893 195.688 329.383 189.99 327.375 196.951C326.683 199.357 325.939 201.365 325.278 202.969C324.597 204.583 326.321 206.145 327.862 205.317C330.793 203.734 334.488 201.328 337.261 198.13C342.66 191.903 342.603 185.99 342.603 185.99C342.603 185.99 344.228 186.357 345.014 190.724C345.26 192.055 345.381 193.517 345.439 194.922C345.486 196.102 347.153 196.327 347.52 195.205C349.711 188.585 352.625 177.215 351.31 166.291C349.286 149.48 340.805 137.602 340.805 137.602L354.685 149.255C355.954 150.319 357.872 149.396 357.825 147.756C357.626 140.511 356.263 125.058 348.825 112.001H348.814Z" fill="#F87A7A"/>
<path d="M292.301 169.646C292.301 169.646 284.8 185.434 270.484 184.585C270.484 184.585 264.519 184.753 259.743 179.49C259.743 179.49 257.699 184.412 260.593 186.451C260.593 186.451 244.233 187.982 236.469 161.495C228.706 187.977 212.346 186.451 212.346 186.451C215.245 184.412 213.195 179.49 213.195 179.49C208.425 184.753 202.46 184.585 202.46 184.585C188.144 185.434 180.643 169.646 180.643 169.646C190.016 171.344 190.016 168.288 198.371 157.762C200.903 154.56 204.211 152.216 207.587 150.487C215.324 146.539 223.428 145.868 223.428 145.868C223.532 146.073 223.632 146.277 223.737 146.482C227.805 154.077 236.464 155.21 236.464 155.21C236.464 155.21 245.428 154.041 249.406 146.078C249.443 146.01 249.475 145.942 249.506 145.874C249.506 145.874 257.736 146.539 265.531 150.581C268.838 152.3 272.078 154.622 274.562 157.757C282.928 168.293 282.928 171.349 292.301 169.651V169.646Z" fill="#F87A7A"/>
<path d="M299.48 238.785C297.187 230.547 294.666 222.492 291.896 214.774C290.234 210.137 288.472 205.628 286.622 201.268L275.824 208.885L299.486 238.785H299.48Z" fill="#F87A7A"/>
<path d="M295.459 339.322L298.611 358.568H271.47C271.553 352.751 271.581 346.779 271.57 340.724C271.57 339.3 271.564 337.865 271.559 336.43C271.526 329.089 271.437 321.649 271.31 314.236L285.049 279.051L272.855 276.625L299.486 238.792C300.927 243.971 302.284 249.224 303.553 254.52C304.074 256.714 304.589 258.919 305.082 261.124C305.232 261.788 305.381 262.459 305.531 263.129C305.669 263.788 305.819 264.448 305.963 265.107C306.511 267.644 307.049 270.193 307.558 272.736C307.675 273.29 307.786 273.844 307.891 274.392C307.93 274.564 307.963 274.73 307.996 274.896C308.179 275.838 308.362 276.774 308.55 277.711C308.761 278.819 308.971 279.921 309.176 281.029C309.204 281.162 309.231 281.301 309.259 281.434C309.436 282.403 309.619 283.373 309.791 284.342C310.051 285.749 310.306 287.157 310.55 288.564C310.594 288.807 310.639 289.046 310.677 289.289L310.96 290.935C311.852 296.093 312.672 301.206 313.42 306.248C313.553 307.101 313.68 307.949 313.802 308.796C314.035 310.397 314.267 311.987 314.484 313.572C314.633 314.602 314.772 315.622 314.905 316.641C315.497 320.962 316.04 325.206 316.533 329.35C316.644 330.253 316.755 331.145 316.86 332.037C317.038 333.588 317.22 335.117 317.387 336.63L295.459 339.322Z" fill="url(#paint0_linear_22_127)"/>
<path d="M319.569 358.565H299.193L319.104 353.43C319.142 353.834 319.181 354.233 319.214 354.632C319.336 355.962 319.458 357.275 319.569 358.565Z" fill="#F87A7A"/>
<path d="M188.435 205.346L184.003 202.316L178.441 199.13C174.291 208.632 170.612 218.903 167.344 229.601L188.435 205.346Z" fill="#F87A7A"/>
<path d="M145.056 353.432L164.967 358.568H144.59C144.74 356.89 144.895 355.178 145.056 353.432Z" fill="#F87A7A"/>
<path d="M192.684 358.568H165.549L168.701 339.322L146.774 336.635C150.137 306.575 155.76 270.32 165.089 237.279L188.635 274.381L175.222 276.625C175.222 276.625 184.962 303.095 192.701 324.07C192.557 335.81 192.529 347.466 192.684 358.568Z" fill="url(#paint1_linear_22_127)"/>
<path d="M172.347 225.733L163.732 235.35L167.948 242.076L161.295 266.807C154.477 275.015 149.963 281.912 142.431 289.474L120.165 254.741C121.323 252.597 123.09 250.098 125.179 247.483C133.5 237.068 146.885 224.719 146.885 224.719C146.885 224.719 137.893 211.905 151.372 206.359C153.073 205.661 154.791 205.362 156.497 205.351C156.597 205.351 156.696 205.351 156.802 205.356C166.414 205.65 175.222 215.052 175.222 215.052L172.347 225.733Z" fill="#F97B7B"/>
<path d="M343.242 260.48L320.776 301.229L301.597 271.405L296.472 250.242L294.561 242.348L296.372 239.855L292.882 235.411L289.375 220.93L288.976 219.279C288.976 219.279 301.896 206.21 313.27 211.257C326.605 217.173 317.292 229.733 317.292 229.733C317.292 229.733 337.746 249.627 343.242 260.48Z" fill="#F97B7B"/>
<path d="M220.358 232.49L202.929 284.6L225.831 317.818L253.598 281.558L240.186 233.287L220.358 232.49Z" fill="#F87A7A"/>
<path d="M251.293 225.516C250.938 232.763 240.717 243.117 230.047 242.596C219.377 242.076 212.291 230.862 212.645 223.616C213 216.37 220.451 223.921 231.122 224.447C241.792 224.973 251.648 218.275 251.293 225.522V225.516Z" fill="#F87A7A"/>
<path d="M303.015 238.606L288.268 219.825L284.661 215.232L279.675 208.883L262.96 211.243C262.916 211.254 262.877 211.26 262.833 211.271C259.454 212.013 256.756 214.384 255.553 217.476C255.559 217.67 255.57 217.875 255.576 218.091C256.329 236.09 260.213 329.541 260.273 333.796L260.478 349.225L289.797 276.267L277.138 274.234L295.364 249.137L303.015 238.606ZM293.453 241.243L266.218 278.744L281.171 281.142L265.913 319.103C264.816 291.342 262.379 232.822 261.775 218.113C261.764 217.958 261.758 217.803 261.753 217.659L277.01 215.509L277.908 216.65L291.774 234.307L295.265 238.75L293.453 241.243Z" fill="#DB5454"/>
<path d="M202.435 209.506L183.516 206.16L179.255 211.207L159.145 235.04L183.754 271.555L171.034 273.139L197.759 347.089L198.513 331.671C198.718 327.421 205.903 234.093 207.283 216.187C207.316 215.766 207.344 215.389 207.371 215.057C206.507 212.675 204.751 210.675 202.435 209.506ZM193.388 316.795L179.482 278.319L194.507 276.447L166.89 235.456L185.765 213.09L185.948 212.874L201.122 215.561C201.117 215.611 201.117 215.661 201.111 215.711C200.02 229.86 195.482 288.895 193.388 316.795Z" fill="#DB5454"/>
<path d="M184.405 208.742L171.818 225.071L163.313 235.617L186.786 275.419H176.581L188.828 316.581L197.672 319.643L203.115 211.123L184.405 208.742Z" fill="#DB5454"/>
<path d="M277.519 208.742L290.106 225.071L298.611 235.617L275.138 275.419H285.344L273.097 316.581L264.252 319.643L260.062 214.759L277.519 208.742Z" fill="#DB5454"/>
<path d="M301.038 168.382C301.038 168.382 301.038 168.406 301.032 168.412C301.032 168.388 301.038 168.382 301.038 168.382Z" fill="#E2A176"/>
<path d="M13.3573 393.141L4.99176 323.629L447.385 318.206L438.648 398.941L13.3573 393.141Z" fill="white"/>
<path d="M442.408 319.412L8.73291 326.072L15.3935 397.118H442.408V319.412Z" fill="#F87A7A"/>
<path d="M80.4463 387.275C68.1013 387.426 58.9851 384.869 53.0976 379.603C47.2095 374.284 44.206 366.772 44.0872 357.069C43.9696 347.473 46.762 339.945 52.4641 334.483C58.2202 329.021 67.2977 326.214 79.6965 326.062C92.1493 325.91 101.293 328.493 107.127 333.814C113.015 339.133 116.018 346.591 116.136 356.186C116.255 365.944 113.463 373.526 107.761 378.934C102.058 384.341 92.953 387.122 80.4463 387.275ZM80.2442 370.779C86.228 370.706 90.5268 369.521 93.1406 367.224C95.7537 364.874 97.0306 361.273 96.9711 356.421C96.913 351.677 95.549 348.162 92.8792 345.877C90.2093 343.591 85.8824 342.485 79.8986 342.558C73.9687 342.631 69.6972 343.842 67.0841 346.193C64.4709 348.543 63.1934 352.09 63.2515 356.834C63.3103 361.632 64.6746 365.174 67.3445 367.459C70.0144 369.745 74.3143 370.852 80.2442 370.779ZM152.865 385.579C153.091 377.651 153.164 370.344 153.082 363.66C153.053 361.288 152.437 359.408 151.234 358.021C150.084 356.633 148.62 355.95 146.841 355.972C144.954 355.995 143.348 356.931 142.023 358.781C140.752 360.63 140.136 363.144 140.175 366.325L140.092 366.164C140.199 374.951 140.387 381.473 140.655 385.729L121.329 385.965C121.665 378.197 121.752 367.683 121.589 354.421C121.427 341.16 121.083 330.65 120.556 322.893L139.801 322.657L140.187 347.562L140.159 351.848C141.407 348.059 143.286 345.259 145.798 343.449C148.363 341.585 151.263 340.633 154.498 340.593C157.732 340.553 160.544 341.247 162.934 342.673C165.323 344.046 167.126 345.938 168.341 348.349C169.611 350.76 170.264 353.475 170.301 356.493L170.444 368.138C170.532 375.307 170.737 381.047 171.059 385.356L152.865 385.579ZM257.633 325.662C257.367 334.777 257.298 344.537 257.425 354.941C257.553 365.399 257.862 375.181 258.351 384.287L229.402 384.642L209.292 340.731L211.289 384.864L190.507 385.118C190.81 374.655 190.906 364.868 190.794 355.757C190.684 346.701 190.348 336.946 189.789 326.493L219.546 326.129L239.752 371.252L237.821 325.905L257.633 325.662ZM289.246 384.718C280.027 384.831 273.209 382.811 268.791 378.66C264.426 374.454 262.201 368.901 262.117 362.001C262.034 355.262 264.124 349.764 268.385 345.506C272.7 341.248 279.467 339.062 288.685 338.95C294.884 338.874 300.072 339.834 304.248 341.832C308.477 343.775 311.61 346.46 313.647 349.885C315.684 353.257 316.728 357.072 316.78 361.331C316.865 368.285 314.615 373.893 310.031 378.155C305.5 382.416 298.572 384.603 289.246 384.718ZM289.401 370.967C292.905 370.924 295.509 370.057 297.214 368.364C298.918 366.672 299.753 364.424 299.719 361.621C299.687 358.979 298.798 356.834 297.052 355.184C295.306 353.48 292.681 352.649 289.177 352.692C285.673 352.735 283.122 353.602 281.526 355.293C279.929 356.984 279.147 359.177 279.18 361.873C279.214 364.676 280.05 366.903 281.688 368.554C283.326 370.206 285.897 371.01 289.401 370.967ZM352.658 383.132C352.885 375.204 352.957 367.897 352.875 361.213C352.846 358.841 352.23 356.961 351.027 355.574C349.877 354.186 348.413 353.503 346.634 353.525C344.855 353.547 343.356 354.374 342.136 356.006C340.915 357.585 340.214 359.75 340.032 362.502C339.974 366.6 339.956 369.512 339.977 371.237C340.022 374.903 340.179 378.918 340.448 383.282L321.122 383.518C321.458 375.75 321.584 368.416 321.499 361.516C321.415 354.616 321.109 347.233 320.581 339.368C324.141 339.486 326.864 339.533 328.751 339.51C330.746 339.486 333.467 339.372 336.915 339.168L339.406 351.026C340.593 346.698 342.495 343.493 345.111 341.413C347.727 339.278 350.787 338.189 354.291 338.146C357.525 338.106 360.338 338.8 362.727 340.226C365.116 341.599 366.919 343.491 368.135 345.902C369.404 348.313 370.057 351.028 370.094 354.046L370.237 365.691C370.325 372.86 370.53 378.6 370.852 382.909L352.658 383.132ZM408.854 319.362C408.898 322.974 408.848 329.903 408.704 340.148C408.616 341.767 408.577 342.954 408.586 343.708C407.601 351.323 407.008 357.962 406.808 363.625L391.848 363.808C391.51 358.151 390.755 351.529 389.583 343.941L389.459 340.384C389.034 332.086 388.787 325.161 388.719 319.608L408.854 319.362ZM408.918 384.061L390.158 384.29L389.982 369.897L408.742 369.667L408.918 384.061Z" fill="#FFF0F1"/>
<path d="M442.437 322.701L434.676 394.456L17.2906 388.761L9.97771 327.997L442.437 322.701ZM452.327 313.715L0 319.261L9.41816 397.526L442.62 403.437L452.327 313.721V313.715Z" fill="#F87A7A"/>
<path d="M164.968 358.57H165.55L165.528 358.714L164.968 358.57Z" fill="#EDEDED"/>
<path d="M299.193 358.57L298.633 358.714L298.611 358.57H299.193Z" fill="#EDEDED"/>
<path d="M206.557 213.353C211.05 224.129 251.254 224.888 256.069 216.35C261.886 206.029 260.612 245.17 260.612 245.17L230.124 224.677L202.928 237.281L206.557 213.353Z" fill="#F87A7A"/>
<path d="M371.398 217.309C370.621 228.593 378.745 233.122 382.904 233.976C385.026 240.118 392.554 250.963 405.685 245.208C418.817 239.452 421.023 221.235 420.485 212.846C435.468 191.489 429.64 184.515 423.476 178.439C417.312 172.363 413.395 179.673 413.821 182.659C414.1 184.616 416.567 188.242 418.131 189.704C417.15 192.637 412.612 198.495 410.019 201.178C412.137 198.252 416.438 192.005 416.701 190.42C417.029 188.439 410.714 186.386 413.359 179.137C415.475 173.339 420.345 174.564 422.515 175.901C431.479 154.573 419.433 155.973 417.874 160.468C416.627 164.063 405.79 181.506 400.528 189.777C415.641 151.814 396.912 143.553 395.407 157.562C393.902 171.57 389.928 178.075 387.502 186.73C385.077 195.384 372.369 203.203 371.398 217.309Z" fill="#F87A7A"/>
<path d="M365.043 196.035C366.397 197.261 370.038 209.567 371.69 215.566C373.91 206.525 380.064 199.672 382.863 197.376C381.338 197.136 377.835 195.053 376.022 188.638C373.755 180.621 366.289 173.269 359.741 178.682C353.192 184.095 363.351 194.503 365.043 196.035Z" fill="#F87A7A"/>
<path d="M88.3007 191.323C84.1247 201.835 74.8413 202.409 70.7217 201.381C66.1534 206.003 54.6782 212.53 45.3236 201.665C35.969 190.799 41.8523 173.417 45.9632 166.085C41.681 140.35 49.9512 136.58 58.1357 133.764C66.3202 130.949 66.6935 139.234 65.0188 141.742C63.9209 143.387 60.1292 145.59 58.0874 146.234C57.7045 149.302 59.2646 156.546 60.444 160.086C59.7984 156.533 58.6193 149.04 59.0675 147.497C59.6278 145.569 66.2095 146.446 66.9571 138.767C67.5551 132.623 62.6338 131.623 60.0984 131.891C61.2327 108.784 71.4903 115.252 70.9538 119.979C70.5246 123.76 72.7589 144.173 73.9297 153.907C76.7075 113.141 97.1676 113.785 92.4706 127.068C87.7736 140.352 88.5461 147.935 86.9933 156.788C85.4406 165.64 93.5207 178.184 88.3007 191.323Z" fill="#F87A7A"/>
<path d="M103.619 173.311C101.868 173.832 93.2665 183.355 89.1846 188.051C91.0895 178.938 88.502 170.099 86.9701 166.819C88.4489 167.262 92.5084 166.897 96.9155 161.896C102.424 155.646 112.334 152.242 115.901 159.954C119.467 167.665 105.807 172.661 103.619 173.311Z" fill="#F87A7A"/>
<path d="M50.7404 207.795C59.4859 209.726 65.73 208.568 71.7567 202.85C78.4789 204.086 84.191 200.88 88.6007 195.2L142.625 289.28L121.509 309.547C114.843 315.945 103.886 314.052 99.7534 305.789L50.7404 207.795Z" fill="url(#paint2_linear_22_127)"/>
<path d="M399.126 248.768C390.354 246.963 385.126 243.357 381.957 235.678C375.315 234.064 371.409 228.806 369.7 221.822L310.471 284.805L318.551 300.764C322.694 308.946 333.546 310.833 340.207 304.529L399.126 248.768Z" fill="url(#paint3_linear_22_127)"/>
<defs>
<linearGradient id="paint0_linear_22_127" x1="294.348" y1="238.792" x2="294.348" y2="358.568" gradientUnits="userSpaceOnUse">
<stop stop-color="#FA7C7C"/>
<stop offset="1" stop-color="#CE4444"/>
</linearGradient>
<linearGradient id="paint1_linear_22_127" x1="169.737" y1="237.279" x2="169.737" y2="358.568" gradientUnits="userSpaceOnUse">
<stop stop-color="#FA7C7C"/>
<stop offset="1" stop-color="#CE4444"/>
</linearGradient>
<linearGradient id="paint2_linear_22_127" x1="96.6825" y1="195.2" x2="137.812" y2="296.38" gradientUnits="userSpaceOnUse">
<stop stop-color="#F97B7B"/>
<stop offset="1" stop-color="#CE4444"/>
</linearGradient>
<linearGradient id="paint3_linear_22_127" x1="374.03" y1="223.757" x2="312.822" y2="286.42" gradientUnits="userSpaceOnUse">
<stop stop-color="#F97B7B"/>
<stop offset="1" stop-color="#CE4444"/>
</linearGradient>
</defs>
</svg>
