<svg xmlns="http://www.w3.org/2000/svg" width="63" height="63" viewBox="0 0 63 63" fill="none">
    <g opacity="0.2">
        <path d="M27.5625 45.2813C27.5625 40.582 29.4293 36.0751 32.7522 32.7522C36.0751 29.4293 40.5819 27.5625 45.2812 27.5625V15.75C45.2827 15.4909 45.2331 15.2341 45.1351 14.9942C45.0371 14.7543 44.8928 14.5362 44.7103 14.3522L32.8978 2.53972C32.7139 2.35725 32.4957 2.21289 32.2558 2.11492C32.0159 2.01695 31.7591 1.96728 31.5 1.96878H5.90625C4.86196 1.96878 3.86044 2.38363 3.12202 3.12205C2.38359 3.86047 1.96875 4.86199 1.96875 5.90628V57.0938C1.96875 58.1381 2.38359 59.1396 3.12202 59.878C3.86044 60.6164 4.86196 61.0313 5.90625 61.0313H37.2094C34.3087 59.5469 31.8734 57.2913 30.1715 54.5126C28.4695 51.7339 27.5668 48.5398 27.5625 45.2813Z" fill="#7D1EE7"/>
        <path d="M45.2813 29.5312C42.1662 29.5313 39.1211 30.455 36.531 32.1856C33.941 33.9162 31.9222 36.376 30.7302 39.254C29.5381 42.1319 29.2262 45.2987 29.8339 48.3539C30.4416 51.4091 31.9416 54.2155 34.1443 56.4182C36.347 58.6209 39.1534 60.1209 42.2086 60.7286C45.2638 61.3363 48.4306 61.0244 51.3085 59.8324C54.1865 58.6403 56.6463 56.6216 58.3769 54.0315C60.1075 51.4414 61.0313 48.3963 61.0313 45.2812C61.0313 41.1041 59.3719 37.098 56.4182 34.1443C53.4645 31.1906 49.4584 29.5313 45.2813 29.5312ZM52.5853 49.7897C52.7698 49.9727 52.9163 50.1905 53.0163 50.4304C53.1162 50.6703 53.1677 50.9276 53.1677 51.1875C53.1677 51.4474 53.1162 51.7047 53.0163 51.9446C52.9163 52.1845 52.7698 52.4023 52.5853 52.5853C52.4023 52.7698 52.1846 52.9163 51.9446 53.0163C51.7047 53.1162 51.4474 53.1677 51.1875 53.1677C50.9276 53.1677 50.6703 53.1162 50.4304 53.0163C50.1905 52.9163 49.9727 52.7698 49.7897 52.5853L45.2813 48.0572L40.7728 52.5853C40.5898 52.7698 40.3721 52.9163 40.1321 53.0163C39.8922 53.1162 39.6349 53.1677 39.375 53.1677C39.1151 53.1677 38.8578 53.1162 38.6179 53.0163C38.378 52.9163 38.1602 52.7698 37.9772 52.5853C37.7927 52.4023 37.6462 52.1845 37.5463 51.9446C37.4463 51.7047 37.3948 51.4474 37.3948 51.1875C37.3948 50.9276 37.4463 50.6703 37.5463 50.4304C37.6462 50.1905 37.7927 49.9727 37.9772 49.7897L42.5053 45.2812L37.9772 40.7728C37.7936 40.5892 37.648 40.3713 37.5487 40.1315C37.4493 39.8917 37.3982 39.6346 37.3982 39.375C37.3982 39.1154 37.4493 38.8583 37.5487 38.6185C37.648 38.3787 37.7936 38.1608 37.9772 37.9772C38.1608 37.7936 38.3787 37.648 38.6185 37.5487C38.8584 37.4493 39.1154 37.3982 39.375 37.3982C39.6346 37.3982 39.8917 37.4493 40.1315 37.5487C40.3713 37.648 40.5893 37.7936 40.7728 37.9772L45.2813 42.5053L49.7897 37.9772C49.9733 37.7936 50.1912 37.648 50.431 37.5487C50.6709 37.4493 50.9279 37.3982 51.1875 37.3982C51.4471 37.3982 51.7042 37.4493 51.944 37.5487C52.1838 37.648 52.4018 37.7936 52.5853 37.9772C52.7689 38.1608 52.9145 38.3787 53.0138 38.6185C53.1132 38.8583 53.1643 39.1154 53.1643 39.375C53.1643 39.6346 53.1132 39.8917 53.0138 40.1315C52.9145 40.3713 52.7689 40.5892 52.5853 40.7728L48.0572 45.2812L52.5853 49.7897Z" fill="#7D1EE7"/>
    </g>
</svg>