<svg xmlns="http://www.w3.org/2000/svg" width="25" height="25" viewBox="0 0 25 25" fill="none">
<g clip-path="url(#clip0_1638_6305)">
<path d="M24.5709 12.9794C24.5709 12.1636 24.5048 11.3435 24.3637 10.541H13.0449V15.162H19.5267C19.2577 16.6524 18.3935 17.9707 17.128 18.8085V21.8069H20.995C23.2658 19.7168 24.5709 16.6303 24.5709 12.9794Z" fill="#4285F4"/>
<path d="M13.0448 24.7044C16.2812 24.7044 19.0106 23.6418 20.9992 21.8075L17.1322 18.8092C16.0564 19.5411 14.6674 19.9556 13.0492 19.9556C9.91857 19.9556 7.26415 17.8435 6.31174 15.0039H2.32129V18.0948C4.3584 22.147 8.50759 24.7044 13.0448 24.7044Z" fill="#34A853"/>
<path d="M6.30746 15.0038C5.8048 13.5135 5.8048 11.8997 6.30746 10.4093V7.31836H2.32142C0.619421 10.7091 0.619421 14.704 2.32142 18.0948L6.30746 15.0038Z" fill="#FBBC04"/>
<path d="M13.0448 5.45279C14.7556 5.42633 16.4091 6.07009 17.6481 7.25179L21.0742 3.82574C18.9048 1.78863 16.0255 0.668659 13.0448 0.703934C8.50758 0.703934 4.3584 3.26135 2.32129 7.31793L6.30733 10.4089C7.25533 7.56486 9.91416 5.45279 13.0448 5.45279Z" fill="#EA4335"/>
</g>
<defs>
<clipPath id="clip0_1638_6305">
<rect width="24" height="24" fill="white" transform="translate(0.804688 0.703125)"/>
</clipPath>
</defs>
</svg>