<svg width="1454" height="961" viewBox="0 0 1454 961" fill="none" xmlns="http://www.w3.org/2000/svg">
<g clip-path="url(#clip0_1439_4414)">
<path d="M6.03295 478.389C6.03295 479.931 4.78569 481.178 3.24304 481.178C1.70038 481.178 0.453125 479.931 0.453125 478.389C0.453125 476.846 1.70038 475.599 3.24304 475.599C4.78569 475.599 6.03295 476.846 6.03295 478.389Z" fill="#DDC8F1"/>
<path d="M38.9372 472.793C38.9372 474.335 37.69 475.583 36.1473 475.583C34.6047 475.583 33.3574 474.335 33.3574 472.793C33.3574 471.25 34.6047 470.003 36.1473 470.003C37.69 470.003 38.9372 471.25 38.9372 472.793Z" fill="#DDC8F1"/>
<path d="M149.877 539.259C149.877 540.801 148.63 542.049 147.087 542.049C145.545 542.049 144.297 540.801 144.297 539.259C144.297 537.716 145.545 536.469 147.087 536.469C148.63 536.469 149.877 537.716 149.877 539.259Z" fill="#DDC8F1"/>
<path d="M1416.59 578.499C1416.59 580.042 1415.35 581.289 1413.8 581.289C1412.26 581.289 1411.02 580.042 1411.02 578.499C1411.02 576.956 1412.26 575.709 1413.8 575.709C1415.35 575.709 1416.59 576.956 1416.59 578.499Z" fill="#DDC8F1"/>
<path d="M17.5369 73.9999C17.5369 75.5425 16.2896 76.7898 14.7469 76.7898C13.2043 76.7898 11.957 75.5425 11.957 73.9999C11.957 72.4572 13.2043 71.21 14.7469 71.21C16.2896 71.21 17.5369 72.4572 17.5369 73.9999Z" fill="#DDC8F1"/>
<path d="M63.5705 20.7948C63.5705 22.3374 62.3233 23.5847 60.7806 23.5847C59.238 23.5847 57.9907 22.3374 57.9907 20.7948C57.9907 19.2521 59.238 18.0049 60.7806 18.0049C62.3233 18.0049 63.5705 19.2521 63.5705 20.7948Z" fill="#DDC8F1"/>
<path d="M78.6034 71.1941C80.1442 71.1941 81.3933 69.945 81.3933 68.4042C81.3933 66.8633 80.1442 65.6143 78.6034 65.6143C77.0626 65.6143 75.8135 66.8633 75.8135 68.4042C75.8135 69.945 77.0626 71.1941 78.6034 71.1941Z" fill="#DDC8F1"/>
<path d="M91.3381 50.4979C91.3381 52.0406 90.0909 53.2878 88.5482 53.2878C87.0055 53.2878 85.7583 52.0406 85.7583 50.4979C85.7583 48.9553 87.0055 47.708 88.5482 47.708C90.0909 47.708 91.3381 48.9553 91.3381 50.4979Z" fill="#DDC8F1"/>
<path d="M63.5705 178.865C63.5705 180.408 62.3233 181.655 60.7806 181.655C59.238 181.655 57.9907 180.408 57.9907 178.865C57.9907 177.322 59.238 176.075 60.7806 176.075C62.3233 176.075 63.5705 177.322 63.5705 178.865Z" fill="#DDC8F1"/>
<path d="M199.899 18.0038C199.899 19.5464 198.651 20.7937 197.109 20.7937C195.566 20.7937 194.319 19.5464 194.319 18.0038C194.319 16.4611 195.566 15.2139 197.109 15.2139C198.651 15.2139 199.899 16.4611 199.899 18.0038Z" fill="#DDC8F1"/>
<path d="M7.51 266.634C7.51 268.176 6.26274 269.424 4.72009 269.424C3.17743 269.424 1.93018 268.176 1.93018 266.634C1.93018 265.091 3.17743 263.844 4.72009 263.844C6.26274 263.844 7.51 265.091 7.51 266.634Z" fill="#DDC8F1"/>
<path d="M607.701 52.829C607.701 54.3716 606.454 55.6189 604.911 55.6189C603.369 55.6189 602.122 54.3716 602.122 52.829C602.122 51.2863 603.369 50.0391 604.911 50.0391C606.454 50.0391 607.701 51.2863 607.701 52.829Z" fill="#DDC8F1"/>
<path d="M66.3767 755.409C66.3767 756.952 65.1294 758.199 63.5868 758.199C62.0441 758.199 60.7969 756.952 60.7969 755.409C60.7969 753.866 62.0441 752.619 63.5868 752.619C65.1294 752.619 66.3767 753.866 66.3767 755.409Z" fill="#DDC8F1"/>
<path d="M63.5701 857.388C63.5701 858.93 62.3228 860.178 60.7801 860.178C59.2375 860.178 57.9902 858.93 57.9902 857.388C57.9902 855.845 59.2375 854.598 60.7801 854.598C62.3228 854.598 63.5701 855.845 63.5701 857.388Z" fill="#DDC8F1"/>
<path d="M33.866 779.157C33.866 780.7 32.6187 781.947 31.076 781.947C29.5334 781.947 28.2861 780.7 28.2861 779.157C28.2861 777.614 29.5334 776.367 31.076 776.367C32.6187 776.367 33.866 777.614 33.866 779.157Z" fill="#DDC8F1"/>
<path d="M188.903 758.216C188.903 759.758 187.656 761.006 186.113 761.006C184.57 761.006 183.323 759.758 183.323 758.216C183.323 756.673 184.57 755.426 186.113 755.426C187.656 755.426 188.903 756.673 188.903 758.216Z" fill="#DDC8F1"/>
<path d="M1390.16 758.051C1390.11 767.783 1397.95 775.71 1407.68 775.759H1407.72C1397.97 775.71 1390.02 783.571 1389.99 793.303V796.831V793.27C1390.04 783.538 1382.2 775.611 1372.46 775.562H1372.43C1382.18 775.611 1390.12 767.751 1390.16 758.019V754.49V758.051Z" fill="#DDC8F1"/>
<path d="M1427.74 741.706C1427.74 743.249 1426.49 744.496 1424.95 744.496C1423.41 744.496 1422.16 743.249 1422.16 741.706C1422.16 740.163 1423.41 738.916 1424.95 738.916C1426.49 738.916 1427.74 740.163 1427.74 741.706Z" fill="#DDC8F1"/>
<path d="M1451.14 766.736C1452.68 766.736 1453.93 765.487 1453.93 763.946C1453.93 762.405 1452.68 761.156 1451.14 761.156C1449.6 761.156 1448.35 762.405 1448.35 763.946C1448.35 765.487 1449.6 766.736 1451.14 766.736Z" fill="#DDC8F1"/>
<path d="M1372.04 858.636C1372.04 860.178 1370.79 861.426 1369.25 861.426C1367.71 861.426 1366.46 860.178 1366.46 858.636C1366.46 857.093 1367.71 855.846 1369.25 855.846C1370.79 855.846 1372.04 857.093 1372.04 858.636Z" fill="#DDC8F1"/>
<path d="M840.314 878.018C840.314 879.561 839.067 880.808 837.524 880.808C835.982 880.808 834.734 879.561 834.734 878.018C834.734 876.476 835.982 875.229 837.524 875.229C839.067 875.229 840.314 876.476 840.314 878.018Z" fill="#DDC8F1"/>
<path d="M883.197 820.202C883.197 821.745 881.95 822.992 880.407 822.992C878.864 822.992 877.617 821.745 877.617 820.202C877.617 818.659 878.864 817.412 880.407 817.412C881.95 817.412 883.197 818.659 883.197 820.202Z" fill="#DDC8F1"/>
<path d="M760.999 957.776C760.999 959.319 759.751 960.566 758.209 960.566C756.666 960.566 755.419 959.319 755.419 957.776C755.419 956.234 756.666 954.986 758.209 954.986C759.751 954.986 760.999 956.234 760.999 957.776Z" fill="#DDC8F1"/>
<path d="M830.844 865.315C830.844 866.858 829.597 868.105 828.055 868.105C826.512 868.105 825.265 866.858 825.265 865.315C825.265 863.773 826.512 862.525 828.055 862.525C829.597 862.525 830.844 863.773 830.844 865.315Z" fill="#DDC8F1"/>
<path d="M933.316 865.315C933.316 866.858 932.069 868.105 930.526 868.105C928.984 868.105 927.736 866.858 927.736 865.315C927.736 863.773 928.984 862.525 930.526 862.525C932.069 862.525 933.316 863.773 933.316 865.315Z" fill="#DDC8F1"/>
<path d="M825.249 766.386C825.249 767.928 824.002 769.176 822.459 769.176C820.916 769.176 819.669 767.928 819.669 766.386C819.669 764.843 820.916 763.596 822.459 763.596C824.002 763.596 825.249 764.843 825.249 766.386Z" fill="#DDC8F1"/>
<path d="M288.535 740.706H288.47C279.28 740.641 271.829 733.124 271.829 723.951C271.829 723.901 271.829 723.869 271.829 723.819V720.291C271.845 719.815 271.468 719.438 270.992 719.438C270.516 719.438 270.138 719.815 270.138 720.291V723.852C270.138 723.852 270.122 723.918 270.122 723.934C270.073 728.365 268.3 732.534 265.149 735.652C261.982 738.786 257.797 740.51 253.35 740.51H253.251C253.251 740.51 253.186 740.51 253.169 740.51C252.743 740.559 252.398 740.92 252.398 741.363C252.398 741.839 252.775 742.216 253.251 742.216H253.317C262.507 742.282 269.958 749.798 269.958 758.972C269.958 759.021 269.958 759.054 269.958 759.103V762.632C269.942 763.108 270.352 763.502 270.795 763.485C271.271 763.485 271.648 763.108 271.648 762.632V759.071C271.648 759.071 271.665 759.005 271.665 758.989C271.714 754.558 273.486 750.389 276.637 747.271C279.805 744.136 283.99 742.413 288.437 742.413C288.47 742.413 288.486 742.43 288.535 742.413C289.011 742.413 289.389 742.036 289.389 741.56C289.389 741.084 289.011 740.706 288.535 740.706Z" fill="#DDC8F1"/>
<path d="M191.824 694.933H191.676C172.081 694.785 156.244 678.735 156.343 659.14L156.376 651.771C156.376 651.295 156.047 650.869 155.522 650.918C155.046 650.918 154.669 651.295 154.669 651.771L154.636 659.074C154.587 668.593 150.845 677.521 144.067 684.233C137.355 690.879 128.46 694.539 119.007 694.539C118.942 694.539 118.892 694.539 118.794 694.539C118.318 694.539 117.94 694.916 117.94 695.392C117.94 695.868 118.318 696.246 118.794 696.246H118.942C138.52 696.393 154.373 712.444 154.275 732.039L154.242 739.407C154.242 739.883 154.62 740.261 155.095 740.261C155.571 740.261 155.949 739.883 155.949 739.407L155.982 732.104C156.031 722.586 159.773 713.658 166.551 706.946C173.312 700.25 182.289 696.541 191.807 696.64C191.84 696.656 191.857 696.64 191.873 696.64C192.316 696.607 192.661 696.246 192.661 695.786C192.661 695.31 192.283 694.933 191.807 694.933H191.824Z" fill="#DDC8F1"/>
<path d="M106.191 508.173H106.125C96.902 508.091 89.4349 500.542 89.4841 491.319V487.758C89.5005 487.282 89.1231 486.904 88.6472 486.904C88.1712 486.904 87.7938 487.282 87.7938 487.758V491.286C87.7609 495.766 85.9885 499.984 82.8048 503.135C79.6374 506.27 75.4525 507.993 71.0051 507.993C70.9723 507.993 70.9558 507.993 70.9066 507.993C70.4307 507.993 70.0532 508.37 70.0532 508.846C70.0532 509.322 70.4307 509.699 70.9066 509.699H70.9723C80.1954 509.765 87.6625 517.331 87.6132 526.554V530.115C87.5968 530.591 87.9743 530.968 88.4502 530.968C88.9261 530.968 89.3036 530.591 89.3036 530.115V526.587C89.3364 522.106 91.1088 517.889 94.2926 514.738C97.46 511.603 101.645 509.88 106.092 509.88H106.191C106.191 509.88 106.256 509.88 106.273 509.88C106.7 509.831 107.044 509.47 107.044 509.027C107.044 508.551 106.667 508.173 106.191 508.173Z" fill="#DDC8F1"/>
<path d="M1161.7 73.2436H1161.63C1152.41 73.1615 1144.94 65.6123 1144.99 56.3892V52.828C1145.01 52.3521 1144.63 51.9746 1144.15 51.9746C1143.68 51.9746 1143.3 52.3521 1143.3 52.828V56.3564C1143.27 60.8367 1141.49 65.0544 1138.31 68.2053C1135.13 71.3563 1130.96 73.0302 1126.41 73.063C1126.4 73.063 1126.35 73.063 1126.33 73.063C1125.9 73.1123 1125.56 73.4733 1125.56 73.9164C1125.56 74.3924 1125.94 74.7698 1126.41 74.7698H1126.48C1135.7 74.8519 1143.17 82.401 1143.12 91.6242V95.1854C1143.1 95.6613 1143.48 96.0388 1143.96 96.0388C1144.43 96.0388 1144.81 95.6613 1144.81 95.1854V91.657C1144.84 87.1767 1146.61 82.959 1149.8 79.8081C1152.96 76.6735 1157.15 74.9503 1161.6 74.9503C1161.63 74.9503 1161.66 74.9503 1161.7 74.9503C1162.17 74.9503 1162.55 74.5729 1162.55 74.097C1162.55 73.621 1162.17 73.2436 1161.7 73.2436Z" fill="#DDC8F1"/>
<path d="M1356.99 277.795H1356.92C1347.7 277.713 1340.23 270.164 1340.28 260.941V257.38C1340.3 256.904 1339.92 256.526 1339.45 256.526C1338.97 256.526 1338.59 256.904 1338.59 257.38V260.908C1338.56 265.388 1336.79 269.59 1333.6 272.757C1330.44 275.892 1326.25 277.615 1321.8 277.615H1321.7C1321.7 277.615 1321.64 277.615 1321.62 277.615C1321.2 277.664 1320.85 278.025 1320.85 278.468C1320.85 278.944 1321.23 279.322 1321.7 279.322H1321.77C1330.99 279.404 1338.46 286.953 1338.41 296.176V299.737C1338.4 300.213 1338.77 300.591 1339.25 300.591C1339.72 300.591 1340.1 300.213 1340.1 299.737V296.209C1340.13 291.728 1341.91 287.527 1345.09 284.36C1348.26 281.225 1352.44 279.502 1356.89 279.502H1356.99C1356.99 279.502 1357.05 279.502 1357.09 279.502C1357.51 279.453 1357.86 279.092 1357.86 278.649C1357.86 278.173 1357.48 277.795 1357.01 277.795H1356.99Z" fill="#DDC8F1"/>
<path d="M1099.81 125.219H1099.66C1080.08 125.071 1064.23 109.021 1064.33 89.4261L1064.36 82.0575C1064.36 81.5816 1063.98 81.2041 1063.51 81.2041C1063.03 81.2041 1062.65 81.5816 1062.65 82.0575L1062.62 89.3605C1062.57 98.879 1058.83 107.807 1052.05 114.519C1045.34 121.165 1036.44 124.825 1026.99 124.825H1026.78C1026.78 124.825 1026.73 124.825 1026.71 124.825C1026.27 124.858 1025.93 125.219 1025.93 125.679C1025.93 126.154 1026.3 126.532 1026.78 126.532H1026.93C1046.46 126.68 1062.26 142.615 1062.26 162.128C1062.26 162.21 1062.26 162.292 1062.26 162.39L1062.23 169.693C1062.23 170.169 1062.6 170.547 1063.08 170.547C1063.56 170.547 1063.93 170.169 1063.93 169.693L1063.97 162.325V162.144C1064.08 152.724 1067.82 143.879 1074.54 137.248C1081.25 130.602 1090.14 126.942 1099.6 126.942C1099.66 126.942 1099.74 126.942 1099.81 126.942C1100.28 126.942 1100.66 126.565 1100.66 126.089C1100.66 125.613 1100.28 125.235 1099.81 125.235V125.219Z" fill="#DDC8F1"/>
<path d="M1084.15 79.2333C1084.15 80.7759 1082.91 82.0232 1081.36 82.0232C1079.82 82.0232 1078.57 80.7759 1078.57 79.2333C1078.57 77.6906 1079.82 76.4434 1081.36 76.4434C1082.91 76.4434 1084.15 77.6906 1084.15 79.2333Z" fill="#DDC8F1"/>
<path d="M949.22 84.8299C949.22 86.3726 947.972 87.6199 946.43 87.6199C944.887 87.6199 943.64 86.3726 943.64 84.8299C943.64 83.2873 944.887 82.04 946.43 82.04C947.972 82.04 949.22 83.2873 949.22 84.8299Z" fill="#DDC8F1"/>
<path d="M1307.39 152.049C1307.39 153.591 1306.15 154.839 1304.6 154.839C1303.06 154.839 1301.81 153.591 1301.81 152.049C1301.81 150.506 1303.06 149.259 1304.6 149.259C1306.15 149.259 1307.39 150.506 1307.39 152.049Z" fill="#DDC8F1"/>
<path d="M1402.46 52.829C1402.46 54.3716 1401.22 55.6189 1399.67 55.6189C1398.13 55.6189 1396.88 54.3716 1396.88 52.829C1396.88 51.2863 1398.13 50.0391 1399.67 50.0391C1401.22 50.0391 1402.46 51.2863 1402.46 52.829Z" fill="#DDC8F1"/>
<path d="M1396.7 24.5018C1396.7 26.0445 1395.46 27.2917 1393.91 27.2917C1392.37 27.2917 1391.12 26.0445 1391.12 24.5018C1391.12 22.9592 1392.37 21.7119 1393.91 21.7119C1395.46 21.7119 1396.7 22.9592 1396.7 24.5018Z" fill="#DDC8F1"/>
<path d="M1452.96 87.618C1452.96 89.1607 1451.71 90.4079 1450.17 90.4079C1448.63 90.4079 1447.38 89.1607 1447.38 87.618C1447.38 86.0754 1448.63 84.8281 1450.17 84.8281C1451.71 84.8281 1452.96 86.0754 1452.96 87.618Z" fill="#DDC8F1"/>
<path d="M1210.88 2.78991C1210.88 4.33257 1209.63 5.57982 1208.09 5.57982C1206.55 5.57982 1205.3 4.33257 1205.3 2.78991C1205.3 1.24725 1206.55 0 1208.09 0C1209.63 0 1210.88 1.24725 1210.88 2.78991Z" fill="#DDC8F1"/>
<path d="M1259.67 311.486C1259.67 313.029 1258.42 314.276 1256.88 314.276C1255.34 314.276 1254.09 313.029 1254.09 311.486C1254.09 309.944 1255.34 308.696 1256.88 308.696C1258.42 308.696 1259.67 309.944 1259.67 311.486Z" fill="#DDC8F1"/>
<path d="M1393.91 249.532C1393.91 251.075 1392.67 252.322 1391.12 252.322C1389.58 252.322 1388.33 251.075 1388.33 249.532C1388.33 247.989 1389.58 246.742 1391.12 246.742C1392.67 246.742 1393.91 247.989 1393.91 249.532Z" fill="#DDC8F1"/>
<path d="M1025.35 172.48C1026.89 172.48 1028.14 171.231 1028.14 169.69C1028.14 168.149 1026.89 166.9 1025.35 166.9C1023.81 166.9 1022.56 168.149 1022.56 169.69C1022.56 171.231 1023.81 172.48 1025.35 172.48Z" fill="#DDC8F1"/>
</g>
<defs>
<clipPath id="clip0_1439_4414">
<rect width="1453.49" height="960.566" fill="white" transform="translate(0.436523)"/>
</clipPath>
</defs>
</svg>
