<svg xmlns="http://www.w3.org/2000/svg" width="79" height="57" viewBox="0 0 79 57" fill="none">
  <path d="M44.3269 26.4391C44.0932 25.8465 44.5863 25.2223 45.2168 25.3124L54.9008 26.6952C55.0434 26.7156 55.1888 26.6985 55.3228 26.6457L64.4234 23.058C65.016 22.8244 65.6402 23.3174 65.5501 23.948L64.1672 33.632C64.1469 33.7746 64.1639 33.92 64.2168 34.054L67.8045 43.1546C68.0381 43.7472 67.5451 44.3713 66.9145 44.2813L57.2305 42.8984C57.0879 42.878 56.9425 42.8951 56.8085 42.9479L47.7079 46.5356C47.1153 46.7692 46.4912 46.2762 46.5812 45.6456L47.9641 35.9616C47.9844 35.819 47.9674 35.6736 47.9146 35.5396L44.3269 26.4391Z" fill="#DDC8F1"/>
  <path d="M10.9879 3.34721C11.2029 2.82193 11.9049 2.72431 12.2551 3.171L16.214 8.22085C16.2931 8.32184 16.3972 8.40051 16.516 8.44913L22.4544 10.8801C22.9797 11.0951 23.0773 11.7971 22.6306 12.1473L17.5807 16.1062C17.4797 16.1853 17.4011 16.2894 17.3525 16.4082L14.9215 22.3466C14.7065 22.8719 14.0045 22.9695 13.6543 22.5228L9.69543 17.4729C9.61625 17.3719 9.51217 17.2933 9.39341 17.2447L3.45501 14.8137C2.92973 14.5987 2.83211 13.8967 3.2788 13.5465L8.32865 9.58763C8.42964 9.50845 8.50831 9.40437 8.55693 9.28561L10.9879 3.34721Z" fill="#A167DC"/>
</svg>