<svg xmlns="http://www.w3.org/2000/svg" width="70" height="69" viewBox="0 0 70 69" fill="none">
<path d="M34.1814 15.0373C33.8742 14.4792 34.2838 13.7974 34.9207 13.8065L44.702 13.9458C44.846 13.9478 44.9881 13.9124 45.1142 13.8429L53.6843 9.1263C54.2423 8.81916 54.9241 9.22875 54.9151 9.86568L54.7758 19.6469C54.7737 19.7909 54.8092 19.933 54.8786 20.0592L59.5952 28.6292C59.9024 29.1873 59.4928 29.8691 58.8558 29.86L49.0746 29.7207C48.9306 29.7187 48.7885 29.7541 48.6624 29.8235L40.0923 34.5402C39.5343 34.8473 38.8525 34.4377 38.8615 33.8008L39.0008 24.0195C39.0029 23.8755 38.9674 23.7335 38.898 23.6073L34.1814 15.0373Z" fill="#DDC8F1"/>
<path d="M57.2013 47.1233C57.514 46.5683 58.3093 46.5575 58.637 47.1038L62.0572 52.8057C62.1313 52.9292 62.2362 53.0313 62.3617 53.102L68.1545 56.3661C68.7094 56.6788 68.7202 57.4741 68.174 57.8017L62.472 61.222C62.3485 61.2961 62.2464 61.401 62.1757 61.5265L58.9116 67.3192C58.5989 67.8742 57.8036 67.885 57.476 67.3387L54.0557 61.6368C53.9816 61.5133 53.8767 61.4112 53.7512 61.3405L47.9585 58.0764C47.4035 57.7637 47.3927 56.9684 47.939 56.6408L53.6409 53.2205C53.7644 53.1464 53.8665 53.0415 53.9372 52.916L57.2013 47.1233Z" fill="#914FD2"/>
<path d="M12.1189 11.8762C12.5256 11.386 13.3101 11.5173 13.535 12.1133L15.4113 17.086C15.4622 17.2208 15.5472 17.34 15.658 17.432L19.7483 20.8259C20.2385 21.2326 20.1071 22.0171 19.5111 22.242L14.5384 24.1183C14.4036 24.1692 14.2844 24.2542 14.1925 24.365L10.7986 28.4553C10.3918 28.9455 9.60734 28.8141 9.38246 28.2182L7.5061 23.2454C7.45526 23.1107 7.37024 22.9915 7.25941 22.8995L3.16916 19.5056C2.67895 19.0988 2.8103 18.3144 3.40628 18.0895L8.37902 16.2131C8.51376 16.1623 8.63297 16.0773 8.72494 15.9664L12.1189 11.8762Z" fill="#8347BD"/>
</svg>