<svg xmlns="http://www.w3.org/2000/svg" width="17" height="17" viewBox="0 0 17 17" fill="none">
  <g clip-path="url(#clip0_1411_5728)">
    <path d="M1.63818 5.36914L7.08146 9.17944C7.52224 9.48798 7.74263 9.64226 7.98236 9.70201C8.19411 9.7548 8.41559 9.7548 8.62734 9.70201C8.86707 9.64226 9.08746 9.48798 9.52824 9.17944L14.9715 5.36914M4.83818 14.0358H11.7715C12.8916 14.0358 13.4517 14.0358 13.8795 13.8178C14.2558 13.6261 14.5618 13.3201 14.7535 12.9438C14.9715 12.516 14.9715 11.9559 14.9715 10.8358V6.56914C14.9715 5.44904 14.9715 4.88898 14.7535 4.46116C14.5618 4.08484 14.2558 3.77887 13.8795 3.58713C13.4517 3.36914 12.8916 3.36914 11.7715 3.36914H4.83818C3.71808 3.36914 3.15803 3.36914 2.7302 3.58713C2.35388 3.77887 2.04792 4.08484 1.85617 4.46116C1.63818 4.88898 1.63818 5.44904 1.63818 6.56914V10.8358C1.63818 11.9559 1.63818 12.516 1.85617 12.9438C2.04792 13.3201 2.35388 13.6261 2.7302 13.8178C3.15803 14.0358 3.71808 14.0358 4.83818 14.0358Z" stroke="#667085" strokeWidth="1.33333" strokeLinecap="round" strokeLinejoin="round"/>
  </g>
  <defs>
    <clipPath id="clip0_1411_5728">
      <rect width="16" height="16" fill="white" transform="translate(0.304688 0.703125)"/>
    </clipPath>
  </defs>
</svg>