<svg width="481" height="399" viewBox="0 0 481 399" fill="none" xmlns="http://www.w3.org/2000/svg">
<path d="M286.125 334.159L301.168 231.284L281.009 209.976L320.035 163.996C320.035 163.996 327.988 133.774 327.988 132.532C327.988 131.29 290.172 57.1556 290.172 57.1556L180.712 63.6219L152.351 101.069L140.975 152.029L181.91 206.547L162.257 229.841L170.665 271.443V331.338L286.125 334.159Z" fill="#F4EDFB"/>
<path fill-rule="evenodd" clip-rule="evenodd" d="M190.984 211.16C189.392 209.904 187.857 208.567 186.386 207.153L184.458 205.299L156.654 181.615C154.676 179.93 152.84 178.085 151.164 176.098C142.589 165.929 138.691 152.62 140.425 139.432L141.943 127.88C142.548 123.272 143.589 118.732 145.049 114.32L148.576 103.666C151.932 93.5277 157.635 84.3256 165.22 76.8085C174.074 68.0344 185.174 61.8699 197.302 58.9921L202.812 57.6845C209.17 56.1758 215.683 55.4137 222.217 55.4137H233.445C238.012 55.4137 242.572 55.0415 247.079 54.3006L266.906 51.0413C283.571 48.7427 299.345 59.1974 303.72 75.4414L304.021 76.5621C305.226 81.0347 307.313 85.221 310.161 88.8745L315.709 95.9932C320.008 101.51 323.32 107.73 325.495 114.378C329.069 125.298 329.458 136.997 326.635 148.111C325.514 143.761 322.492 140.461 317.298 140.258C315.324 140.177 313.653 140.448 312.237 140.963C314.163 117.822 303.324 87.7773 285.309 78.1809C258.478 63.8922 236.269 60.2226 236.269 60.2226C236.269 60.2226 215.633 62.216 187.767 74.3619C178.284 78.4956 172.529 86.0034 169.171 95.4316C165.91 104.605 164.918 115.579 164.972 127.025C163.599 126.401 161.956 126 159.981 125.924C152.999 125.653 149.495 131.262 149.197 137.75C148.915 143.912 153.647 161.101 158.926 164.551C159.816 165.133 160.498 165.612 161.041 165.993C163.13 167.459 163.155 167.476 164.972 166.344C166.838 189.147 177.133 198.707 201.035 205.955C201.6 206.129 202.142 206.346 202.657 206.611C204.925 207.756 206.645 209.714 207.491 212.047C207.632 212.416 207.74 212.796 207.833 213.181C207.692 213.175 207.545 213.165 207.404 213.154C205.321 213.045 203.308 212.888 201.361 212.687C197.666 212.318 194.211 211.798 190.984 211.16ZM262.529 214.99L262.534 214.987L278.065 208.039C282.142 206.215 286.075 204.081 289.773 201.578C295.222 197.889 301.438 193.51 302.427 192.191C304.137 189.911 314.965 179.083 317.815 179.083C319.202 179.083 321.223 172.186 322.978 164.689C321.683 166.368 320.101 167.792 318.253 168.803C313.729 171.271 310.55 171.179 308.38 169.584C308.087 171.353 307.8 173.105 307.518 174.841C307.518 174.852 307.512 174.863 307.512 174.868C307.512 174.873 307.511 174.878 307.51 174.883C307.508 174.89 307.507 174.897 307.507 174.906C303.601 198.726 283.969 203.427 261.917 208.309C261.897 208.314 261.878 208.318 261.859 208.322C261.837 208.326 261.816 208.331 261.792 208.337C258.483 209.063 255.842 211.385 254.664 214.412C254.588 214.607 254.518 214.808 254.453 215.009C254.491 215.009 254.53 215.01 254.569 215.012C254.609 215.013 254.648 215.014 254.686 215.014C256.775 215.074 258.798 215.079 260.756 215.036C261.353 215.025 261.944 215.009 262.529 214.99Z" fill="#8347BD"/>
<path d="M346.013 111.68C336.328 94.6902 317.409 78.7941 316.572 78.1012L335.809 90.3941C337.077 91.2051 338.715 90.117 338.437 88.6387C337.503 83.5471 334.531 73.5639 325.123 60.7423C311.27 41.8641 283.05 30.993 265.034 30.993C257.823 30.993 244.082 31.5216 236.008 35.1659C227.94 31.5216 214.199 30.993 206.988 30.993C188.972 30.993 160.752 41.8641 146.894 60.7474C137.486 73.569 134.514 83.5522 133.579 88.6439C133.302 90.1221 134.94 91.2102 136.207 90.3993L155.445 78.1064C154.613 78.7993 135.689 94.6954 126.004 111.685C118.725 124.465 117.391 139.597 117.196 146.69C117.15 148.297 119.028 149.205 120.27 148.158L133.862 136.748C133.862 136.748 125.557 148.379 123.576 164.839C122.287 175.536 125.141 186.664 127.287 193.152C127.646 194.25 129.278 194.029 129.324 192.874C129.381 191.499 129.499 190.067 129.74 188.763C130.51 184.488 132.101 184.128 132.101 184.128C132.101 184.128 132.045 189.918 137.332 196.016C140.042 199.147 143.665 201.503 146.535 203.053C148.044 203.864 149.727 202.334 149.06 200.753C148.413 199.183 147.679 197.217 147.007 194.861C145.046 188.045 151.395 193.624 155.142 196.283C158.889 198.941 170.946 208.088 183.316 208.088H184.707C188.977 207.534 197.942 208.159 197.675 204.879C191.994 203.053 183.316 193.771 180.652 175.941C180.595 175.777 180.595 175.664 180.539 175.551C177.439 175.218 174.605 174.063 172.116 172.236C170.561 171.127 169.17 169.741 168.015 168.196C165.069 164.383 163.303 159.394 163.303 153.979C163.303 143.79 169.504 135.218 177.885 132.898C178.05 132.457 178.106 131.903 178.106 131.4C178.106 130.625 177.942 129.85 177.659 129.126C177.547 127.914 177.382 126.698 177.382 125.42C177.382 93.0067 203.657 66.6706 236.014 66.3934C268.37 66.6706 294.645 93.0067 294.645 125.42C294.645 126.693 294.481 127.914 294.368 129.126C294.091 129.844 293.921 130.625 293.921 131.4C293.921 131.897 293.978 132.452 294.142 132.898C302.518 135.218 308.724 143.79 308.724 153.979C308.724 159.394 306.953 164.383 304.012 168.196C302.857 169.736 301.466 171.127 299.911 172.236C297.422 174.063 294.588 175.218 291.488 175.551C291.432 175.659 291.432 175.772 291.375 175.941C288.711 192.84 275.131 205.101 264.983 207.596C264.717 210.876 283.055 207.534 287.32 208.088H288.711C301.081 208.088 313.133 198.941 316.885 196.283C320.632 193.624 326.986 188.045 325.02 194.861C324.343 197.217 323.614 199.183 322.967 200.753C322.3 202.334 323.989 203.864 325.498 203.053C328.367 201.503 331.986 199.147 334.701 196.016C339.987 189.918 339.931 184.128 339.931 184.128C339.931 184.128 341.522 184.488 342.292 188.763C342.533 190.067 342.651 191.499 342.708 192.874C342.754 194.029 344.386 194.25 344.746 193.152C346.891 186.669 349.745 175.536 348.457 164.839C346.475 148.379 338.17 136.748 338.17 136.748L351.762 148.158C353.004 149.2 354.883 148.297 354.837 146.69C354.641 139.597 353.307 124.465 346.024 111.68H346.013Z" fill="#8347BD"/>
<path d="M290.677 168.126C290.677 168.126 283.332 183.586 269.314 182.755C269.314 182.755 263.473 182.919 258.798 177.766C258.798 177.766 256.796 182.585 259.629 184.582C259.629 184.582 243.61 186.081 236.008 160.145C228.407 186.076 212.387 184.582 212.387 184.582C215.226 182.585 213.219 177.766 213.219 177.766C208.548 182.919 202.707 182.755 202.707 182.755C188.689 183.586 181.344 168.126 181.344 168.126C190.522 169.789 190.522 166.797 198.703 156.491C201.183 153.354 204.421 151.06 207.727 149.366C215.303 145.501 223.238 144.844 223.238 144.844C223.341 145.045 223.438 145.245 223.541 145.445C227.524 152.882 236.003 153.991 236.003 153.991C236.003 153.991 244.78 152.846 248.676 145.05C248.712 144.983 248.742 144.916 248.773 144.849C248.773 144.849 256.832 145.501 264.464 149.459C267.703 151.142 270.875 153.416 273.308 156.485C281.5 166.802 281.5 169.795 290.677 168.132V168.126Z" fill="#8347BD"/>
<path d="M297.708 235.827C295.462 227.761 292.994 219.873 290.281 212.317C288.654 207.776 286.929 203.36 285.117 199.091L274.544 206.55L297.713 235.827H297.708Z" fill="#8347BD"/>
<path d="M293.769 334.271L296.856 353.116H270.28C270.361 347.42 270.388 341.572 270.378 335.643C270.378 334.249 270.372 332.844 270.367 331.439C270.334 324.251 270.247 316.966 270.123 309.707L283.576 275.255L271.636 272.879L297.713 235.833C299.123 240.906 300.452 246.048 301.694 251.234C302.204 253.382 302.709 255.541 303.192 257.701C303.338 258.351 303.485 259.008 303.631 259.664C303.767 260.31 303.913 260.955 304.054 261.601C304.591 264.085 305.118 266.581 305.617 269.071C305.731 269.613 305.839 270.156 305.942 270.693C305.98 270.861 306.013 271.024 306.045 271.186C306.224 272.109 306.403 273.025 306.588 273.942C306.794 275.027 307 276.107 307.201 277.192C307.228 277.322 307.255 277.457 307.282 277.588C307.456 278.537 307.635 279.486 307.803 280.436C308.058 281.813 308.307 283.191 308.546 284.569C308.589 284.808 308.633 285.041 308.671 285.28L308.947 286.891C309.821 291.941 310.624 296.948 311.356 301.885C311.486 302.72 311.611 303.55 311.73 304.38C311.958 305.948 312.186 307.505 312.398 309.056C312.544 310.065 312.68 311.064 312.81 312.062C313.39 316.293 313.922 320.448 314.405 324.506C314.513 325.39 314.622 326.264 314.725 327.137C314.898 328.656 315.077 330.153 315.24 331.634L293.769 334.271Z" fill="url(#paint0_linear_21_5)"/>
<path d="M317.378 353.116H297.426L316.922 348.087C316.96 348.483 316.998 348.873 317.031 349.264C317.15 350.566 317.269 351.852 317.378 353.116Z" fill="#8347BD"/>
<path d="M188.973 203.085L184.634 200.117L179.187 196.998C175.124 206.302 171.522 216.359 168.322 226.834L188.973 203.085Z" fill="#8347BD"/>
<path d="M146.498 348.085L165.994 353.114H146.042C146.189 351.47 146.34 349.794 146.498 348.085Z" fill="#8347BD"/>
<path d="M193.135 353.115H166.565L169.651 334.27L148.18 331.639C151.473 302.204 156.979 266.705 166.114 234.352L189.17 270.681L176.036 272.878C176.036 272.878 185.573 298.798 193.151 319.336C193.01 330.831 192.983 342.244 193.135 353.115Z" fill="url(#paint1_linear_21_5)"/>
<path d="M173.22 223.043L164.784 232.461L171.969 242.309L135.991 282.177L91.9088 322.613L55.3521 289.357L112.411 260.055C120.569 249.895 148.065 222.051 148.065 222.051C148.065 222.051 139.261 209.503 152.459 204.073C154.195 203.357 155.958 203.064 157.7 203.086C157.797 203.086 157.895 203.086 157.998 203.091C167.41 203.379 176.035 212.585 176.035 212.585L173.22 223.043Z" fill="#8347BD"/>
<mask id="mask0_21_5" style="mask-type:alpha" maskUnits="userSpaceOnUse" x="55" y="203" width="122" height="120">
<path d="M173.22 223.044L164.785 232.462L171.97 242.31L135.991 282.178L91.9093 322.614L55.3525 289.358L112.411 260.056C120.57 249.895 148.066 222.052 148.066 222.052C148.066 222.052 139.261 209.504 152.46 204.074C154.196 203.358 155.959 203.065 157.7 203.087C157.798 203.087 157.895 203.087 157.998 203.092C167.41 203.38 176.036 212.585 176.036 212.585L173.22 223.044Z" fill="#8347BD"/>
</mask>
<g mask="url(#mask0_21_5)">
<path d="M71.6691 306.468L114.448 309.038L118.487 324.644L71.6691 322.808V306.468Z" fill="#723CA4"/>
</g>
<path d="M283.724 223.043L292.159 232.461L284.974 242.309L320.952 282.177L372.944 328.866L394.276 326.342L437.658 308.277L344.533 260.055C336.374 249.895 308.878 222.051 308.878 222.051C308.878 222.051 317.683 209.503 304.484 204.073C302.748 203.357 300.985 203.064 299.244 203.086C299.146 203.086 299.049 203.086 298.946 203.091C289.534 203.379 280.908 212.585 280.908 212.585L283.724 223.043Z" fill="#8347BD"/>
<mask id="mask1_21_5" style="mask-type:alpha" maskUnits="userSpaceOnUse" x="280" y="203" width="158" height="126">
<path d="M283.724 223.044L292.16 232.462L284.975 242.31L320.953 282.178L372.945 328.866L394.277 326.343L437.659 308.278L344.533 260.056C336.375 249.895 308.879 222.052 308.879 222.052C308.879 222.052 317.683 209.504 304.485 204.074C302.749 203.358 300.986 203.065 299.245 203.087C299.147 203.087 299.049 203.087 298.946 203.092C289.534 203.38 280.909 212.585 280.909 212.585L283.724 223.044Z" fill="#8347BD"/>
</mask>
<g mask="url(#mask1_21_5)">
<path d="M283.724 223.044L292.16 232.462L284.975 242.31L320.953 282.178L372.945 328.866L394.277 326.343L437.659 308.278L344.533 260.056C336.375 249.895 308.879 222.052 308.879 222.052C308.879 222.052 317.683 209.504 304.485 204.074C302.749 203.358 300.986 203.065 299.245 203.087C299.147 203.087 299.049 203.087 298.946 203.092C289.534 203.38 280.909 212.585 280.909 212.585L283.724 223.044Z" fill="#8347BD"/>
<path d="M434.811 303.966L346.47 306.806L345.872 323.547H437.352L434.811 303.966Z" fill="#723CA4"/>
</g>
<path d="M220.23 229.662L203.164 280.687L225.59 313.214L252.779 277.709L239.645 230.443L220.23 229.662Z" fill="#8347BD"/>
<path d="M250.522 222.833C250.175 229.928 240.166 240.067 229.718 239.557C219.27 239.047 212.332 228.068 212.679 220.972C213.026 213.877 220.323 221.271 230.771 221.786C241.219 222.301 250.869 215.743 250.522 222.838V222.833Z" fill="#8347BD"/>
<path d="M301.167 235.65L286.727 217.26L283.195 212.763L278.313 206.546L261.947 208.857C261.903 208.868 261.865 208.874 261.822 208.884C258.513 209.611 255.871 211.933 254.694 214.96C254.699 215.15 254.71 215.351 254.715 215.562C255.453 233.187 259.256 324.692 259.316 328.858L259.516 343.966L288.224 272.527L275.828 270.536L293.676 245.962L301.167 235.65ZM291.804 238.232L265.136 274.952L279.778 277.301L264.838 314.471C263.764 287.288 261.377 229.987 260.786 215.584C260.775 215.432 260.769 215.28 260.764 215.139L275.704 213.034L276.583 214.152L290.161 231.44L293.578 235.791L291.804 238.232Z" fill="#914FD2"/>
<path d="M202.681 207.157L184.156 203.881L179.984 208.823L160.293 232.16L184.389 267.914L171.934 269.466L198.103 341.875L198.841 326.778C199.041 322.617 206.077 231.232 207.428 213.7C207.461 213.287 207.488 212.918 207.515 212.593C206.669 210.26 204.949 208.302 202.681 207.157ZM193.823 312.213L180.207 274.538L194.919 272.704L167.876 232.567L186.358 210.667L186.537 210.456L201.396 213.087C201.39 213.135 201.39 213.184 201.385 213.233C200.316 227.088 195.873 284.894 193.823 312.213Z" fill="#914FD2"/>
<path d="M185.028 206.409L172.703 222.398L164.375 232.724L187.359 271.697H177.366L189.358 312.003L198.019 315.001L203.348 208.74L185.028 206.409Z" fill="#914FD2"/>
<path d="M276.203 206.409L288.528 222.398L296.855 232.724L273.871 271.697H283.864L271.873 312.003L263.212 315.001L259.109 212.301L276.203 206.409Z" fill="#914FD2"/>
<path d="M299.231 166.888C299.231 166.888 299.231 166.91 299.225 166.915C299.225 166.893 299.231 166.888 299.231 166.888Z" fill="#E2A176"/>
<mask id="mask2_21_5" style="mask-type:alpha" maskUnits="userSpaceOnUse" x="78" y="301" width="15" height="20">
<path d="M79.3207 313.824L78.954 301.304C89.4313 303.818 92.0507 315.274 92.0507 320.687L79.3207 313.824Z" fill="#8448BE"/>
</mask>
<g mask="url(#mask2_21_5)">
<path d="M79.3207 313.824L78.954 301.304C89.4313 303.818 92.0507 315.274 92.0507 320.687L79.3207 313.824Z" fill="#8448BE"/>
<path d="M80.1992 303.072L79.3398 298.992L72.9312 318.937L92.582 319.395C93.2141 317.161 93.7722 312.751 90.9472 312.986C85.4525 313.444 81.3358 308.467 80.1992 303.072Z" fill="#723CA4"/>
</g>
<mask id="mask3_21_5" style="mask-type:alpha" maskUnits="userSpaceOnUse" x="421" y="302" width="34" height="15">
<path d="M436.099 315.05L454.591 316.591C442.726 291.678 424.072 307.427 421.25 312.047L436.099 315.05Z" fill="#8448BE"/>
</mask>
<g mask="url(#mask3_21_5)">
<path d="M451.117 321.383L460.247 308.262C435.393 296.834 421.986 305.752 418.39 311.639L451.117 321.383Z" fill="#8448BE"/>
<path d="M448.834 312.873C449.399 314.465 455.203 314.876 455.511 314.927L455.974 317.445L449.501 317.958L421.25 316.314L421.969 306.401L448.525 307.89C448.44 309.02 448.382 311.599 448.834 312.873Z" fill="#723CA4"/>
</g>
<path d="M17.5414 386.968L9.35004 318.904L442.531 313.593L433.976 392.647L17.5414 386.968Z" fill="white"/>
<path d="M437.657 314.772L13.0126 321.294L19.5344 390.86H437.657V314.772Z" fill="#8347BD"/>
<path d="M437.686 317.991L430.086 388.252L21.3925 382.675L14.2319 323.177L437.686 317.991ZM447.37 309.192L4.46191 314.622L13.684 391.257L437.865 397.045L447.37 309.197V309.192Z" fill="#8347BD"/>
<path d="M168.481 326.638L174.526 384.14L154.018 384.093L152.844 343.073L144.832 384.072L124.086 384.025L116.102 343.306L114.821 384.004L94.3126 383.957L100.62 326.484L127.542 326.545L134.346 364.015L140.449 326.574L168.481 326.638ZM221.193 364.45L195.379 364.391C195.796 366.715 196.821 368.618 198.454 370.099C200.14 371.529 202.514 372.247 205.576 372.254C207.793 372.259 209.879 371.841 211.834 371.001C213.789 370.108 215.35 368.871 216.515 367.29C220.047 369.04 224.742 370.925 230.597 372.944C228.952 376.636 225.962 379.585 221.629 381.792C217.348 383.947 211.75 385.016 204.834 385.001C195.86 384.98 189.213 382.906 184.894 378.779C180.627 374.599 178.502 369.13 178.517 362.373C178.532 355.774 180.682 350.421 184.968 346.313C189.253 342.206 195.909 340.162 204.936 340.182C210.321 340.195 214.99 341.103 218.946 342.907C222.901 344.71 225.93 347.225 228.035 350.45C230.139 353.622 231.187 357.267 231.177 361.384C231.174 362.757 231.119 363.786 231.012 364.472L221.193 364.45ZM206.017 352.142C203.378 352.136 201.212 352.632 199.521 353.631C197.829 354.631 196.638 356 195.948 357.741L214.636 357.783C214.006 356.093 212.98 354.744 211.557 353.738C210.134 352.679 208.287 352.147 206.017 352.142ZM253.496 352.804C255.731 344.838 261.257 340.865 270.073 340.885C271.603 340.888 273.081 340.997 274.506 341.212L271.932 358.943C268.134 357.509 265.021 356.79 262.593 356.784C259.584 356.777 257.365 357.67 255.935 359.461C254.506 361.253 253.788 363.653 253.781 366.662L253.781 366.583L253.69 371.809C253.682 375.557 253.778 379.727 253.978 384.321L235.053 384.278C235.493 376.677 235.72 369.498 235.736 362.741C235.751 355.984 235.557 348.751 235.152 341.043C238.635 341.209 241.301 341.295 243.149 341.299C245.102 341.303 247.768 341.23 251.147 341.079L253.496 352.804ZM292.897 362.792C292.997 365.484 293.836 367.651 295.416 369.291C297.049 370.931 299.449 371.755 302.617 371.762C304.359 371.766 305.917 371.453 307.291 370.822C308.665 370.139 309.934 369.139 311.098 367.822C315.581 369.574 320.831 371.091 326.846 372.371C325.094 376.432 322.131 379.593 317.955 381.853C313.833 384.114 308.472 385.236 301.873 385.221C293.057 385.201 286.543 383.128 282.329 379.001C278.115 374.873 276.016 369.458 276.031 362.753C276.046 356.049 278.17 350.643 282.403 346.535C286.635 342.427 293.159 340.383 301.975 340.403C308.574 340.418 313.929 341.565 318.042 343.845C322.207 346.124 325.156 349.298 326.889 353.367C322.188 354.359 316.932 355.852 311.121 357.845C309.963 356.522 308.698 355.543 307.327 354.906C305.956 354.217 304.399 353.87 302.657 353.866C299.49 353.859 297.086 354.672 295.446 356.304C293.858 357.937 293.009 360.1 292.897 362.792ZM341.895 336.614C338.57 336.606 336.09 335.782 334.458 334.142C332.878 332.502 332.091 330.362 332.097 327.723C332.103 325.136 332.899 323 334.487 321.314C336.127 319.629 338.61 318.79 341.936 318.797C345.103 318.805 347.53 319.681 349.215 321.427C350.9 323.12 351.74 325.234 351.734 327.768C351.728 330.407 350.905 332.543 349.265 334.176C347.625 335.809 345.168 336.621 341.895 336.614ZM332.601 384.5C332.99 376.001 333.191 368.981 333.203 363.438C333.218 356.839 333.024 349.448 332.62 341.265L351.624 341.308C351.184 349.173 350.956 356.563 350.94 363.478C350.927 369.285 351.096 376.306 351.447 384.542L332.601 384.5Z" fill="#F4EDFB"/>
<path d="M165.994 353.114H166.563L166.541 353.255L165.994 353.114Z" fill="#EDEDED"/>
<path d="M297.425 353.114L296.877 353.255L296.855 353.114H297.425Z" fill="#EDEDED"/>
<path d="M206.717 210.922C211.117 221.473 250.484 222.216 255.198 213.857C260.894 203.75 259.647 242.076 259.647 242.076L229.794 222.01L203.164 234.351L206.717 210.922Z" fill="#8347BD"/>
<path d="M35.2311 336.209C38.7051 335.372 40.9705 333.93 40.9705 333.93C44.1829 334.748 50.6632 335.833 56.6159 333.391C59.3566 332.51 62.4786 333.467 62.4786 333.467C64.976 334.532 69.0544 335.186 74.2039 332.14C83.0153 326.922 78.8027 293.333 76.2833 289.769C76.2833 289.769 74.9562 285.785 67.6647 284.9C60.3733 284.016 57.2026 287.452 54.1379 287.082C51.0731 286.712 49.7047 284.907 43 285.731C36.3005 286.555 34.8986 289.668 29.9042 288.242C24.9098 286.816 21.9457 287.275 18.0854 290.906C14.2204 294.53 17.4787 313.781 17.3921 320.055C17.3108 326.33 17.4254 334.264 24.179 336.449C27.4046 337.491 31.9435 337.47 35.2306 336.215L35.2311 336.209Z" fill="#713BA4"/>
<path d="M33.8949 332.939C37.4841 332.111 39.8222 330.675 39.8222 330.675C43.1454 331.502 49.8479 332.605 55.9952 330.179C58.8261 329.306 62.0564 330.272 62.0564 330.272C64.6413 331.343 68.8594 332.009 74.1746 328.977C83.2697 323.782 78.8217 290.174 76.2072 286.602C76.2072 286.602 74.8242 282.613 67.2837 281.709C59.7431 280.804 56.4747 284.232 53.3053 283.853C50.1359 283.475 48.7162 281.666 41.787 282.471C34.8632 283.276 33.4225 286.386 28.2552 284.946C23.088 283.506 20.0248 283.958 16.044 287.578C12.0583 291.193 15.48 310.457 15.4079 316.732C15.3412 323.008 15.4816 330.944 22.4696 333.148C25.8072 334.199 30.4996 334.191 33.8944 332.945L33.8949 332.939Z" fill="#8347BD"/>
<path d="M410.292 360.575C411.286 357.028 412.83 354.76 412.83 354.76C412.159 351.401 411.37 344.655 414.08 338.627C415.085 335.84 414.27 332.568 414.27 332.568C413.321 329.936 412.852 325.692 416.13 320.524C421.743 311.681 455.107 317.693 458.553 320.471C458.553 320.471 462.473 322.039 463.025 329.613C463.577 337.188 460 340.292 460.23 343.476C460.461 346.66 462.201 348.162 461.074 355.046C459.946 361.925 456.772 363.219 457.97 368.448C459.167 373.677 456.909 371.964 453.107 375.772C449.31 379.584 431.89 380.019 425.618 379.798C419.346 379.572 411.425 379.061 409.55 371.978C408.656 368.595 408.883 363.908 410.286 360.575L410.292 360.575Z" fill="#723CA4"/>
<path d="M413.321 358.644C414.315 355.098 415.859 352.829 415.859 352.829C415.188 349.471 414.399 342.724 417.109 336.697C418.114 333.91 417.299 330.638 417.299 330.638C416.35 328.006 415.881 323.761 419.159 318.593C424.772 309.751 458.136 315.762 461.582 318.541C461.582 318.541 465.502 320.108 466.054 327.683C466.606 335.257 463.029 338.362 463.259 341.546C463.49 344.729 465.23 346.232 464.103 353.116C462.975 359.995 459.801 361.289 460.999 366.518C462.196 371.746 461.602 374.785 457.799 378.593C454.003 382.405 434.919 378.088 428.647 377.868C422.376 377.641 414.454 377.131 412.579 370.047C411.685 366.664 411.912 361.978 413.315 358.645L413.321 358.644Z" fill="#8347BD"/>
<path d="M83.9943 42.4057C83.4106 42.7788 82.6413 42.3829 82.6058 41.691L82.0594 31.0651C82.0513 30.9087 82.0027 30.757 81.9184 30.625L76.188 21.66C75.8149 21.0762 76.2108 20.307 76.9027 20.2714L87.5286 19.725C87.6851 19.717 87.8367 19.6684 87.9687 19.584L96.9337 13.8537C97.5175 13.4806 98.2867 13.8765 98.3223 14.5684L98.8687 25.1943C98.8767 25.3507 98.9253 25.5024 99.0097 25.6344L104.74 34.5994C105.113 35.1832 104.717 35.9524 104.025 35.988L93.3994 36.5344C93.243 36.5424 93.0913 36.591 92.9593 36.6754L83.9943 42.4057Z" fill="#DDC8F1"/>
<path d="M410.055 186.941C410.598 186.512 411.403 186.829 411.508 187.514L413.115 198.032C413.138 198.186 413.202 198.332 413.299 198.455L419.897 206.802C420.327 207.346 420.01 208.151 419.325 208.255L408.807 209.862C408.652 209.885 408.506 209.949 408.383 210.046L400.037 216.645C399.493 217.074 398.688 216.757 398.583 216.072L396.977 205.554C396.953 205.4 396.89 205.253 396.793 205.131L390.194 196.784C389.765 196.24 390.081 195.435 390.766 195.331L401.284 193.724C401.439 193.7 401.585 193.637 401.708 193.54L410.055 186.941Z" fill="#DDC8F1"/>
<path d="M41.8322 92.3632C42.2204 91.7894 43.0835 91.8483 43.3902 92.4696L48.1002 102.01C48.1695 102.151 48.2742 102.271 48.404 102.359L57.2162 108.321C57.79 108.709 57.7311 109.572 57.1099 109.879L47.5692 114.589C47.4287 114.658 47.3087 114.763 47.2209 114.893L41.2584 123.705C40.8701 124.279 40.007 124.22 39.7003 123.599L34.9903 114.058C34.921 113.918 34.8163 113.798 34.6866 113.71L25.8743 107.747C25.3005 107.359 25.3594 106.496 25.9807 106.189L35.5213 101.479C35.6618 101.41 35.7818 101.305 35.8696 101.175L41.8322 92.3632Z" fill="#DDC8F1"/>
<path d="M117.181 15.1316C116.556 14.8318 116.488 13.9694 117.057 13.5748L123.002 9.45601C123.131 9.3668 123.234 9.24563 123.302 9.10441L126.431 2.58454C126.731 1.95992 127.593 1.89148 127.988 2.46098L132.107 8.40556C132.196 8.53432 132.317 8.63767 132.458 8.70546L138.978 11.835C139.603 12.1348 139.671 12.9972 139.102 13.3918L133.157 17.5105C133.028 17.5998 132.925 17.7209 132.857 17.8622L129.728 24.382C129.428 25.0066 128.566 25.0751 128.171 24.5056L124.052 18.561C123.963 18.4322 123.842 18.3289 123.701 18.2611L117.181 15.1316Z" fill="#914FD2"/>
<path d="M379.763 217.401C380.415 217.636 380.569 218.488 380.042 218.937L374.539 223.63C374.42 223.732 374.329 223.863 374.276 224.01L371.814 230.81C371.578 231.462 370.727 231.616 370.278 231.089L365.585 225.586C365.483 225.467 365.352 225.376 365.205 225.323L358.405 222.861C357.753 222.625 357.599 221.774 358.126 221.325L363.629 216.632C363.748 216.53 363.839 216.399 363.892 216.252L366.354 209.452C366.59 208.8 367.441 208.646 367.89 209.173L372.583 214.676C372.685 214.795 372.816 214.886 372.963 214.939L379.763 217.401Z" fill="#914FD2"/>
<path d="M82.1378 66.5765C81.5767 66.17 81.6633 65.3092 82.2941 65.0227L87.5574 62.6315C87.7001 62.5667 87.8234 62.466 87.9153 62.3391L91.3071 57.6578C91.7136 57.0967 92.5744 57.1833 92.861 57.8141L95.2521 63.0774C95.3169 63.22 95.4177 63.3434 95.5445 63.4353L100.226 66.8271C100.787 67.2336 100.7 68.0944 100.07 68.381L94.8062 70.7721C94.6636 70.8369 94.5403 70.9377 94.4484 71.0645L91.0565 75.7459C90.65 76.3069 89.7892 76.2203 89.5027 75.5895L87.1115 70.3262C87.0468 70.1836 86.946 70.0603 86.8191 69.9684L82.1378 66.5765Z" fill="#8347BD"/>
<path d="M409.485 162.708C410.084 163.056 410.084 163.922 409.485 164.27L404.487 167.175C404.352 167.254 404.239 167.367 404.16 167.502L401.254 172.499C400.905 173.098 400.04 173.098 399.692 172.499L396.786 167.502C396.708 167.366 396.595 167.253 396.46 167.175L391.463 164.268C390.864 163.92 390.864 163.055 391.463 162.706L396.46 159.801C396.596 159.722 396.708 159.61 396.787 159.474L399.694 154.477C400.042 153.878 400.907 153.878 401.255 154.477L404.161 159.475C404.24 159.61 404.352 159.723 404.488 159.802L409.485 162.708Z" fill="#8347BD"/>
<defs>
<linearGradient id="paint0_linear_21_5" x1="292.681" y1="235.833" x2="292.681" y2="353.116" gradientUnits="userSpaceOnUse">
<stop stop-color="#8347BD"/>
<stop offset="1" stop-color="#5A2A88"/>
</linearGradient>
<linearGradient id="paint1_linear_21_5" x1="170.666" y1="234.352" x2="170.666" y2="353.115" gradientUnits="userSpaceOnUse">
<stop stop-color="#8347BD"/>
<stop offset="1" stop-color="#5A2A88"/>
</linearGradient>
</defs>
</svg>
