<svg xmlns="http://www.w3.org/2000/svg" width="25" height="25" viewBox="0 0 25 25" fill="none">
  <path d="M9.97205 9.07617H9.98205M15.972 15.0762H15.982M16.972 8.07617L8.97205 16.0762M10.472 9.07617C10.472 9.35231 10.2482 9.57617 9.97205 9.57617C9.6959 9.57617 9.47205 9.35231 9.47205 9.07617C9.47205 8.80003 9.6959 8.57617 9.97205 8.57617C10.2482 8.57617 10.472 8.80003 10.472 9.07617ZM16.472 15.0762C16.472 15.3523 16.2482 15.5762 15.972 15.5762C15.6959 15.5762 15.472 15.3523 15.472 15.0762C15.472 14.8 15.6959 14.5762 15.972 14.5762C16.2482 14.5762 16.472 14.8 16.472 15.0762ZM22.972 12.0762C22.972 17.599 18.4949 22.0762 12.972 22.0762C7.4492 22.0762 2.97205 17.599 2.97205 12.0762C2.97205 6.55332 7.4492 2.07617 12.972 2.07617C18.4949 2.07617 22.972 6.55332 22.972 12.0762Z" stroke="#E7E5E4" strokeWidth="2" strokeLinecap="round" strokeLinejoin="round"/>
</svg>