<svg xmlns="http://www.w3.org/2000/svg" width="14" height="14" viewBox="0 0 14 14" fill="none">
  <g clip-path="url(#clip0_1638_4533)">
    <path d="M6.45084 1.68564C6.56085 1.42114 6.93554 1.42114 7.04555 1.68564L8.37634 4.88522C8.42271 4.99673 8.52758 5.07292 8.64796 5.08257L12.1022 5.35949C12.3877 5.38239 12.5035 5.73874 12.286 5.9251L9.65421 8.17948C9.56249 8.25804 9.52243 8.38132 9.55045 8.49879L10.3545 11.8695C10.421 12.1482 10.1178 12.3684 9.87336 12.2191L6.91607 10.4128C6.813 10.3498 6.68339 10.3498 6.58032 10.4128L3.62303 12.2191C3.37856 12.3684 3.07542 12.1482 3.14189 11.8695L3.94594 8.49879C3.97396 8.38132 3.9339 8.25804 3.84218 8.17948L1.21043 5.9251C0.992873 5.73874 1.10866 5.38239 1.39421 5.35949L4.84843 5.08257C4.96881 5.07292 5.07368 4.99673 5.12005 4.88522L6.45084 1.68564Z" fill="#914FD2"/>
  </g>
  <defs>
    <clipPath id="clip0_1638_4533">
      <rect width="12.8821" height="12.8821" fill="white" transform="translate(0.307129 0.648438)"/>
    </clipPath>
  </defs>
</svg>