<svg width="180" height="53" viewBox="0 0 180 53" fill="none" xmlns="http://www.w3.org/2000/svg">
                            <path d="M65.0664 27.3841H80.657V42.5H74.2309L73.4641 36.0374C72.7339 38.3498 71.4316 40.0659 69.5573 41.1856C67.6831 42.3053 65.395 42.8651 62.6931 42.8651C60.2346 42.8651 58.0439 42.3174 56.121 41.2221C54.2223 40.1267 52.7253 38.5567 51.63 36.512C50.559 34.4674 50.0235 32.0819 50.0235 29.3557C50.0235 24.9986 51.3257 21.5543 53.9302 19.0228C56.5348 16.4914 60.5876 15.2256 66.0887 15.2256C69.2287 15.2256 71.9915 15.7368 74.3769 16.7591C76.7867 17.7814 78.8314 19.3636 80.5109 21.5057C79.4156 22.0655 77.2735 23.1852 74.0848 24.8647L73.172 25.3759C72.2227 24.4266 71.1152 23.7207 69.8494 23.2582C68.5837 22.7714 67.2449 22.528 65.8331 22.528C63.4964 22.528 61.756 23.1487 60.6119 24.3901C59.4679 25.6072 58.8959 27.1163 58.8959 28.9176C58.8959 30.8649 59.5044 32.4349 60.7215 33.6276C61.9629 34.8203 63.8493 35.4167 66.3808 35.4167C67.4762 35.4167 68.535 35.2585 69.5573 34.942C70.604 34.6256 71.4803 34.0779 72.1862 33.299H65.0664V27.3841ZM104.57 22.5645C104.4 25.6315 104.315 28.9419 104.315 32.4957C104.315 36.0739 104.4 39.4087 104.57 42.5C103.012 42.427 101.783 42.3905 100.883 42.3905C100.031 42.3905 98.8014 42.427 97.1949 42.5L96.136 37.1327C95.5762 39.0801 94.6999 40.5284 93.5071 41.4777C92.3144 42.4026 90.927 42.8651 89.3448 42.8651C87.8843 42.8651 86.6186 42.5487 85.5476 41.9158C84.4765 41.2586 83.6611 40.3823 83.1013 39.287C82.5657 38.1916 82.298 36.9624 82.298 35.5992V30.3415C82.298 27.1041 82.2371 24.5118 82.1154 22.5645H90.3306C90.1846 26.1427 90.1115 29.6843 90.1115 33.1895C90.1115 34.2605 90.3671 35.1124 90.8783 35.7453C91.4138 36.3782 92.0832 36.6946 92.8864 36.6946C93.641 36.6946 94.2982 36.366 94.8581 35.7088C95.4423 35.0272 95.7952 34.1023 95.9169 32.9339V32.0941C95.9656 30.1955 95.99 28.8811 95.99 28.1508C95.99 26.4713 95.9413 24.6092 95.8439 22.5645H104.57ZM114.513 27.9683C115.535 24.2927 118.079 22.455 122.144 22.455C122.85 22.455 123.531 22.5036 124.189 22.601L123.02 30.7797C121.268 30.1225 119.831 29.7939 118.712 29.7939C117.324 29.7939 116.302 30.2077 115.645 31.0353C114.988 31.8629 114.659 32.9704 114.659 34.3578V34.3213L114.622 36.7311C114.622 38.4593 114.671 40.3823 114.768 42.5H106.042C106.237 38.9949 106.334 35.6844 106.334 32.5688C106.334 29.4531 106.237 26.1183 106.042 22.5645C107.649 22.6375 108.878 22.674 109.73 22.674C110.63 22.674 111.86 22.6375 113.418 22.5645L114.513 27.9683ZM136.306 42.8651C132.144 42.8651 129.077 41.9158 127.105 40.0172C125.158 38.0942 124.184 35.5749 124.184 32.4592C124.184 29.4166 125.158 26.9459 127.105 25.0473C129.077 23.1487 132.144 22.1994 136.306 22.1994C139.105 22.1994 141.442 22.6619 143.316 23.5868C145.215 24.4875 146.614 25.7167 147.515 27.2745C148.416 28.808 148.866 30.5363 148.866 32.4592C148.866 35.5992 147.819 38.1186 145.726 40.0172C143.657 41.9158 140.517 42.8651 136.306 42.8651ZM136.452 36.6581C138.034 36.6581 139.215 36.2808 139.994 35.5262C140.773 34.7716 141.162 33.7615 141.162 32.4957C141.162 31.303 140.773 30.3294 139.994 29.5748C139.215 28.7959 138.034 28.4064 136.452 28.4064C134.87 28.4064 133.714 28.7837 132.983 29.5383C132.253 30.2929 131.888 31.2787 131.888 32.4957C131.888 33.7615 132.253 34.7716 132.983 35.5262C133.714 36.2808 134.87 36.6581 136.452 36.6581ZM161.73 42.8651C157.568 42.8651 154.501 41.9158 152.529 40.0172C150.582 38.0942 149.608 35.5749 149.608 32.4592C149.608 29.4166 150.582 26.9459 152.529 25.0473C154.501 23.1487 157.568 22.1994 161.73 22.1994C164.529 22.1994 166.866 22.6619 168.74 23.5868C170.639 24.4875 172.039 25.7167 172.939 27.2745C173.84 28.808 174.29 30.5363 174.29 32.4592C174.29 35.5992 173.244 38.1186 171.15 40.0172C169.081 41.9158 165.941 42.8651 161.73 42.8651ZM161.876 36.6581C163.458 36.6581 164.639 36.2808 165.418 35.5262C166.197 34.7716 166.586 33.7615 166.586 32.4957C166.586 31.303 166.197 30.3294 165.418 29.5748C164.639 28.7959 163.458 28.4064 161.876 28.4064C160.294 28.4064 159.138 28.7837 158.408 29.5383C157.677 30.2929 157.312 31.2787 157.312 32.4957C157.312 33.7615 157.677 34.7716 158.408 35.5262C159.138 36.2808 160.294 36.6581 161.876 36.6581Z" fill="#914FD2" />
                            <path d="M176.451 22.5257C176.658 22.5257 176.846 22.5693 177.016 22.6566C177.186 22.7393 177.271 22.8357 177.271 22.946C177.271 23.1067 177.188 23.1871 177.023 23.1871C176.959 23.1871 176.887 23.1596 176.809 23.1044C176.69 23.0355 176.582 23.0011 176.485 23.0011C176.247 23.0011 176.061 23.0884 175.927 23.2629C175.799 23.4375 175.734 23.6442 175.734 23.883C175.734 24.1173 175.806 24.3194 175.948 24.4893C176.095 24.6593 176.274 24.7443 176.485 24.7443C176.623 24.7443 176.747 24.7167 176.858 24.6616C176.972 24.6019 177.057 24.572 177.112 24.572C177.255 24.572 177.326 24.6432 177.326 24.7856C177.326 24.8637 177.241 24.9556 177.071 25.0612C176.901 25.1669 176.694 25.2197 176.451 25.2197C176.097 25.2197 175.799 25.0865 175.555 24.8201C175.312 24.5536 175.19 24.2367 175.19 23.8692C175.19 23.4972 175.307 23.1802 175.542 22.9184C175.78 22.6566 176.084 22.5257 176.451 22.5257ZM177.946 22.3327C178.369 22.7553 178.58 23.2675 178.58 23.8692C178.58 24.471 178.369 24.9854 177.946 25.4126C177.524 25.8352 177.014 26.0465 176.417 26.0465C175.819 26.0465 175.31 25.8352 174.887 25.4126C174.464 24.9854 174.253 24.471 174.253 23.8692C174.253 23.2675 174.464 22.7553 174.887 22.3327C175.31 21.9056 175.819 21.692 176.417 21.692C177.014 21.692 177.524 21.9056 177.946 22.3327ZM176.41 25.5573C176.86 25.5573 177.243 25.3942 177.56 25.0681C177.882 24.7374 178.043 24.3378 178.043 23.8692C178.043 23.3961 177.882 22.9965 177.56 22.6704C177.243 22.3442 176.86 22.1812 176.41 22.1812C175.964 22.1812 175.583 22.3442 175.266 22.6704C174.949 22.9965 174.79 23.3961 174.79 23.8692C174.79 24.3378 174.949 24.7374 175.266 25.0681C175.583 25.3942 175.964 25.5573 176.41 25.5573Z" fill="#914FD2" />
                            <path d="M38.0109 31.6668L39.975 32.8015C40.1545 32.9054 40.2303 33.1232 40.1545 33.3157C39.9978 33.7033 39.5883 34.2706 38.5241 34.296C38.4988 34.296 38.471 34.296 38.4432 34.296L38.8173 34.7088L39.5478 35.5117C39.7324 35.7144 39.6717 36.036 39.429 36.1627C38.8805 36.4438 37.8896 36.8086 36.7116 36.573L37.1818 37.186C37.3461 37.4013 37.2652 37.7128 37.02 37.8217C36.5574 38.0269 35.6424 38.1383 33.9892 37.3911C33.9159 37.3886 33.8426 37.3886 33.7718 37.3886C33.7288 37.7306 33.6808 38.2751 33.5923 38.8172C33.5797 38.9007 33.562 38.9742 33.5443 39.0451C33.653 39.0299 33.7693 39.0097 33.8982 38.9869L35.109 38.7665L34.5832 39.881C34.5655 39.9215 34.1131 40.8663 33.2384 41.7882C33.1626 41.8693 33.0843 41.9478 33.0059 42.0213C32.3308 43.4804 30.5205 45.5922 25.8117 47.7737C24.6191 48.3262 23.4476 48.9339 22.3638 49.6776L22.2946 49.7251C21.8733 50.0143 21.3175 50.0143 20.8962 49.7251L20.8243 49.6758C19.7423 48.9332 18.5729 48.3263 17.3823 47.7746C12.6711 45.5911 10.8601 43.4807 10.1849 42.0213C10.1066 41.9453 10.0282 41.8693 9.95237 41.7882C9.07775 40.8663 8.62527 39.919 8.60758 39.881L8.0818 38.7665L9.29261 38.9869C9.42153 39.0097 9.53781 39.0299 9.6465 39.0451C9.62881 38.9767 9.61111 38.9007 9.59847 38.8172C9.51 38.2777 9.46197 37.7306 9.419 37.3886C9.34822 37.3886 9.27492 37.3886 9.20161 37.3911C7.54843 38.1383 6.63337 38.0269 6.17078 37.8217C5.92306 37.7128 5.84217 37.4013 6.00647 37.186L6.47664 36.573C5.30122 36.8086 4.30779 36.4438 3.75926 36.1627C3.51659 36.0386 3.45592 35.7144 3.64045 35.5117L4.37099 34.7088L4.7451 34.296C4.7173 34.296 4.69202 34.296 4.66421 34.296C3.60254 34.2681 3.19051 33.7007 3.03378 33.3157C2.95542 33.1258 3.03378 32.9054 3.21326 32.8015L5.17735 31.6668C3.31689 31.1172 1.82044 29.9318 0.895264 28.7261C0.897791 28.6856 0.902847 28.6425 0.905375 28.602C1.1531 26.0311 2.39425 23.9187 4.20415 22.0748C4.35076 21.9253 4.49991 21.7835 4.65157 21.6366C4.6718 21.6188 4.68949 21.5986 4.70971 21.5809C4.50496 21.1731 4.40132 20.7779 4.37352 20.398C4.29768 19.357 4.77796 18.4021 5.23802 17.4776C6.13539 15.6792 7.37148 14.2937 8.83508 13.2046C8.57219 13.1134 8.30171 13.0349 8.02113 12.9665C7.92254 12.9437 7.89979 12.8145 7.98068 12.7563C8.12477 12.655 8.26885 12.5562 8.42052 12.4625C9.78048 11.6215 11.2542 11.1681 12.829 11.0618C12.9933 11.0516 13.1601 11.044 13.327 11.039C13.4155 11.0364 13.5039 11.0364 13.5924 11.0339C13.8932 11.0187 14.1131 10.887 14.237 10.6514C14.2673 10.5957 14.2901 10.5349 14.3078 10.4665C14.4013 10.1246 14.2724 9.84092 13.9766 9.65095C13.4989 9.347 13.0135 9.05572 12.5332 8.75684C12.4473 8.70365 12.3614 8.64286 12.2754 8.54914C12.2147 8.48075 12.2501 8.37437 12.3386 8.35664C12.8846 8.24773 13.4281 8.10842 13.9791 8.06283C16.5322 7.85766 18.7264 8.72644 20.6172 10.4108C20.9609 10.7173 21.191 10.9149 21.3881 10.9984C21.4614 11.0288 21.5272 11.044 21.5954 11.044C21.6637 11.044 21.7319 11.0288 21.8027 10.9984C21.9999 10.9149 22.2274 10.7198 22.5737 10.4108C24.4619 8.72898 26.6535 7.8602 29.2066 8.06536C29.7577 8.10842 30.3011 8.24773 30.8472 8.35918C30.9356 8.37691 30.971 8.48582 30.9103 8.55168C30.8244 8.64793 30.741 8.70618 30.6525 8.75937C30.1722 9.05825 29.6844 9.347 29.2091 9.65348C28.9134 9.84345 28.7845 10.1297 28.878 10.4691C28.8957 10.5349 28.921 10.5982 28.9488 10.654C29.0726 10.8895 29.29 11.0212 29.5934 11.0364C29.6818 11.0415 29.7703 11.039 29.8588 11.0415C30.0256 11.044 30.1925 11.0516 30.3568 11.0643C31.929 11.1707 33.4028 11.6241 34.7652 12.465C34.9144 12.5562 35.061 12.6575 35.2051 12.7588C35.2885 12.8171 35.2632 12.9437 35.1646 12.969C34.884 13.0374 34.6161 13.1159 34.3507 13.2071C35.8143 14.2963 37.0478 15.6818 37.9477 17.4801C38.4103 18.4071 38.8906 19.3595 38.8122 20.4005C38.7844 20.783 38.6808 21.1756 38.476 21.5834C38.4963 21.6011 38.514 21.6214 38.5342 21.6391C38.6859 21.7885 38.8375 21.9304 38.9816 22.0773C40.7915 23.9212 42.0327 26.0337 42.2804 28.6046C42.2854 28.6451 42.288 28.6881 42.2905 28.7287C41.3628 29.9318 39.8689 31.1172 38.0109 31.6668Z" fill="#914FD2" />
                            <mask id="mask0_1607_3555" class="mask-type:luminance" maskUnits="userSpaceOnUse" x="9" y="27" width="25" height="17">
                                <path d="M33.6409 27.416H9.54297V43.4375H33.6409V27.416Z" fill="white" />
                            </mask>
                            <g mask="url(#mask0_1607_3555)">
                                <path d="M33.6412 39.7827C33.6412 39.7827 32.0224 43.2111 28.932 43.0268C28.932 43.0268 27.6443 43.0637 26.6142 41.9208C26.6142 41.9208 26.1727 42.9899 26.7981 43.4323C26.7981 43.4323 23.2662 43.7641 21.591 38.0132C19.9158 43.7641 16.3839 43.4323 16.3839 43.4323C17.0093 42.9899 16.5678 41.9208 16.5678 41.9208C15.5377 43.0637 14.25 43.0268 14.25 43.0268C11.1596 43.2111 9.54077 39.7827 9.54077 39.7827C11.5643 40.1513 11.5643 39.4878 13.367 37.2021C13.914 36.5066 14.6277 35.9979 15.3562 35.6219C17.0265 34.7641 18.7753 34.6191 18.7753 34.6191C18.7973 34.6634 18.8194 34.7076 18.8415 34.7519C19.7196 36.4009 21.5885 36.6467 21.5885 36.6467C21.5885 36.6467 23.5237 36.3936 24.3822 34.6634C24.3895 34.6486 24.3969 34.6339 24.4043 34.6191C24.4043 34.6191 26.18 34.7641 27.8626 35.6415C28.5763 36.0151 29.2754 36.5189 29.8125 37.1997C31.6177 39.4878 31.6177 40.1513 33.6412 39.7827Z" fill="white" />
                            </g>
                            <mask id="mask1_1607_3555" class="mask-type:luminance" maskUnits="userSpaceOnUse" x="9" y="27" width="25" height="17">
                                <path d="M33.6409 27.416H9.54297V43.4375H33.6409V27.416Z" fill="white" />
                            </mask>
                            <g mask="url(#mask1_1607_3555)">
                                <path d="M33.1037 30.5864V31.5645L31.2593 31.8472C31.1317 33.7592 29.7092 35.3149 27.8647 35.6467C26.1821 34.7693 24.4064 34.6243 24.4064 34.6243C24.399 34.6391 24.3917 34.6538 24.3843 34.6686C23.5724 33.946 23.0451 32.9089 22.9936 31.7489L22.5521 31.6678C21.9708 31.5596 21.3724 31.5621 20.7911 31.6776L20.3349 31.7685C20.2784 32.9703 19.7094 34.0369 18.8436 34.7595C18.8215 34.7153 18.7995 34.671 18.7774 34.6268C18.7774 34.6268 17.0286 34.7693 15.3583 35.6295C13.558 35.2559 12.1845 33.7101 12.0692 31.8226L10.4062 31.567V30.5889L12.1256 30.8395C12.469 28.8955 14.1638 27.4185 16.202 27.4185C18.2206 27.4185 19.9032 28.8685 20.2686 30.7855L20.8082 30.6773C21.4116 30.5569 22.0321 30.5569 22.6355 30.6773L23.0696 30.7633C23.4425 28.8562 25.1201 27.416 27.1313 27.416C29.1794 27.416 30.8791 28.9054 31.2102 30.8617L33.1037 30.5864Z" fill="white" />
                            </g>
                            <path fill-rule="evenodd" clip-rule="evenodd" d="M12.4636 34.424C13.2406 35.1722 14.4492 35.5463 16.0895 35.5463C17.749 35.5463 18.9864 35.1722 19.8018 34.424C20.6267 33.6758 21.0392 32.683 21.0392 31.4455C21.0392 30.6877 20.8617 30.0067 20.5068 29.4024C20.1519 28.7884 19.6003 28.304 18.8521 27.9491C18.1135 27.5846 17.1926 27.4023 16.0895 27.4023C14.4492 27.4023 13.2406 27.7764 12.4636 28.5247C11.6962 29.2729 11.3125 30.2465 11.3125 31.4455C11.3125 32.6734 11.6962 33.6662 12.4636 34.424Z" fill="white" />
                            <path fill-rule="evenodd" clip-rule="evenodd" d="M23.322 34.424C24.099 35.1722 25.3076 35.5463 26.9479 35.5463C28.6074 35.5463 29.8448 35.1722 30.6602 34.424C31.4851 33.6758 31.8976 32.683 31.8976 31.4455C31.8976 30.6877 31.7201 30.0067 31.3652 29.4024C31.0103 28.7884 30.4587 28.304 29.7105 27.9491C28.9719 27.5846 28.051 27.4023 26.9479 27.4023C25.3076 27.4023 24.099 27.7764 23.322 28.5247C22.5546 29.2729 22.1709 30.2465 22.1709 31.4455C22.1709 32.6734 22.5546 33.6662 23.322 34.424Z" fill="white" />
                        </svg>